<?xml version="1.0" standalone="no"?>
<svg xmlns="http://www.w3.org/2000/svg" width="500" height="500"><defs><clipPath id="clip-path-dot-color"><path d="M 18 146v 16h 8a 8 8, 0, 0, 0, 0 -16" transform="rotate(-90,26,154)"/><rect x="18" y="162" width="16" height="16" transform="rotate(0,26,170)"/><rect x="18" y="178" width="16" height="16" transform="rotate(0,26,186)"/><rect x="18" y="194" width="16" height="16" transform="rotate(0,26,202)"/><rect x="18" y="210" width="16" height="16" transform="rotate(0,26,218)"/><path d="M 18 226v 16h 16v -8a 8 8, 0, 0, 0, -8 -8" transform="rotate(180,26,234)"/><path d="M 18 274v 16h 8a 8 8, 0, 0, 0, 0 -16" transform="rotate(180,26,282)"/><circle cx="26" cy="314" r="8" transform="rotate(0,26,314)"/><path d="M 34 162v 16h 16v -8a 8 8, 0, 0, 0, -8 -8" transform="rotate(0,42,170)"/><rect x="34" y="178" width="16" height="16" transform="rotate(0,42,186)"/><path d="M 34 226v 16h 8a 8 8, 0, 0, 0, 0 -16" transform="rotate(0,42,234)"/><path d="M 34 258v 16h 16v -8a 8 8, 0, 0, 0, -8 -8" transform="rotate(-90,42,266)"/><rect x="34" y="274" width="16" height="16" transform="rotate(0,42,282)"/><rect x="50" y="178" width="16" height="16" transform="rotate(0,58,186)"/><path d="M 50 194v 16h 8a 8 8, 0, 0, 0, 0 -16" transform="rotate(90,58,202)"/><path d="M 50 242v 16h 8a 8 8, 0, 0, 0, 0 -16" transform="rotate(-90,58,250)"/><rect x="50" y="258" width="16" height="16" transform="rotate(0,58,266)"/><rect x="50" y="274" width="16" height="16" transform="rotate(0,58,282)"/><circle cx="58" cy="314" r="8" transform="rotate(0,58,314)"/><path d="M 66 162v 16h 8a 8 8, 0, 0, 0, 0 -16" transform="rotate(-90,74,170)"/><rect x="66" y="178" width="16" height="16" transform="rotate(0,74,186)"/><path d="M 66 226v 16h 8a 8 8, 0, 0, 0, 0 -16" transform="rotate(180,74,234)"/><path d="M 66 274v 16h 16v -8a 8 8, 0, 0, 0, -8 -8" transform="rotate(0,74,282)"/><path d="M 66 290v 16h 16v -8a 8 8, 0, 0, 0, -8 -8" transform="rotate(180,74,298)"/><path d="M 66 338v 16h 8a 8 8, 0, 0, 0, 0 -16" transform="rotate(180,74,346)"/><path d="M 82 146v 16h 8a 8 8, 0, 0, 0, 0 -16" transform="rotate(180,90,154)"/><path d="M 82 178v 16h 8a 8 8, 0, 0, 0, 0 -16" transform="rotate(0,90,186)"/><path d="M 82 210v 16h 16v -8a 8 8, 0, 0, 0, -8 -8" transform="rotate(-90,90,218)"/><rect x="82" y="226" width="16" height="16" transform="rotate(0,90,234)"/><path d="M 82 242v 16h 16v -8a 8 8, 0, 0, 0, -8 -8" transform="rotate(180,90,250)"/><rect x="82" y="290" width="16" height="16" transform="rotate(0,90,298)"/><rect x="82" y="306" width="16" height="16" transform="rotate(0,90,314)"/><rect x="82" y="322" width="16" height="16" transform="rotate(0,90,330)"/><rect x="82" y="338" width="16" height="16" transform="rotate(0,90,346)"/><rect x="98" y="146" width="16" height="16" transform="rotate(0,106,154)"/><path d="M 98 194v 16h 8a 8 8, 0, 0, 0, 0 -16" transform="rotate(-90,106,202)"/><rect x="98" y="210" width="16" height="16" transform="rotate(0,106,218)"/><rect x="98" y="226" width="16" height="16" transform="rotate(0,106,234)"/><rect x="98" y="242" width="16" height="16" transform="rotate(0,106,250)"/><path d="M 98 258v 16h 8a 8 8, 0, 0, 0, 0 -16" transform="rotate(90,106,266)"/><path d="M 98 290v 16h 8a 8 8, 0, 0, 0, 0 -16" transform="rotate(0,106,298)"/><rect x="98" y="338" width="16" height="16" transform="rotate(0,106,346)"/><path d="M 114 146v 16h 8a 8 8, 0, 0, 0, 0 -16" transform="rotate(0,122,154)"/><path d="M 114 178v 16h 8a 8 8, 0, 0, 0, 0 -16" transform="rotate(180,122,186)"/><rect x="114" y="210" width="16" height="16" transform="rotate(0,122,218)"/><path d="M 114 242v 16h 8a 8 8, 0, 0, 0, 0 -16" transform="rotate(0,122,250)"/><circle cx="122" cy="282" r="8" transform="rotate(0,122,282)"/><path d="M 114 306v 16h 8a 8 8, 0, 0, 0, 0 -16" transform="rotate(180,122,314)"/><path d="M 114 338v 16h 8a 8 8, 0, 0, 0, 0 -16" transform="rotate(0,122,346)"/><path d="M 130 178v 16h 16v -8a 8 8, 0, 0, 0, -8 -8" transform="rotate(0,138,186)"/><rect x="130" y="194" width="16" height="16" transform="rotate(0,138,202)"/><rect x="130" y="210" width="16" height="16" transform="rotate(0,138,218)"/><path d="M 130 258v 16h 8a 8 8, 0, 0, 0, 0 -16" transform="rotate(180,138,266)"/><path d="M 130 290v 16h 8a 8 8, 0, 0, 0, 0 -16" transform="rotate(-90,138,298)"/><path d="M 130 306v 16h 16v -8a 8 8, 0, 0, 0, -8 -8" transform="rotate(90,138,314)"/><path d="M 146 34v 16h 8a 8 8, 0, 0, 0, 0 -16" transform="rotate(-90,154,42)"/><rect x="146" y="50" width="16" height="16" transform="rotate(0,154,58)"/><rect x="146" y="66" width="16" height="16" transform="rotate(0,154,74)"/><rect x="146" y="82" width="16" height="16" transform="rotate(0,154,90)"/><rect x="146" y="98" width="16" height="16" transform="rotate(0,154,106)"/><rect x="146" y="114" width="16" height="16" transform="rotate(0,154,122)"/><path d="M 146 130v 16h 16v -8a 8 8, 0, 0, 0, -8 -8" transform="rotate(180,154,138)"/><circle cx="154" cy="170" r="8" transform="rotate(0,154,170)"/><rect x="146" y="210" width="16" height="16" transform="rotate(0,154,218)"/><rect x="146" y="226" width="16" height="16" transform="rotate(0,154,234)"/><rect x="146" y="242" width="16" height="16" transform="rotate(0,154,250)"/><path d="M 146 258v 16h 16v -8a 8 8, 0, 0, 0, -8 -8" transform="rotate(90,154,266)"/><path d="M 146 322v 16h 16v -8a 8 8, 0, 0, 0, -8 -8" transform="rotate(-90,154,330)"/><path d="M 146 338v 16h 8a 8 8, 0, 0, 0, 0 -16" transform="rotate(90,154,346)"/><path d="M 146 386v 16h 16v -8a 8 8, 0, 0, 0, -8 -8" transform="rotate(-90,154,394)"/><path d="M 146 402v 16h 16v -8a 8 8, 0, 0, 0, -8 -8" transform="rotate(180,154,410)"/><path d="M 146 466v 16h 8a 8 8, 0, 0, 0, 0 -16" transform="rotate(180,154,474)"/><path d="M 162 50v 16h 16v -8a 8 8, 0, 0, 0, -8 -8" transform="rotate(0,170,58)"/><rect x="162" y="66" width="16" height="16" transform="rotate(0,170,74)"/><rect x="162" y="82" width="16" height="16" transform="rotate(0,170,90)"/><rect x="162" y="98" width="16" height="16" transform="rotate(0,170,106)"/><rect x="162" y="130" width="16" height="16" transform="rotate(0,170,138)"/><path d="M 162 146v 16h 8a 8 8, 0, 0, 0, 0 -16" transform="rotate(90,170,154)"/><path d="M 162 178v 16h 8a 8 8, 0, 0, 0, 0 -16" transform="rotate(180,170,186)"/><rect x="162" y="210" width="16" height="16" transform="rotate(0,170,218)"/><path d="M 162 274v 16h 16v -8a 8 8, 0, 0, 0, -8 -8" transform="rotate(-90,170,282)"/><rect x="162" y="290" width="16" height="16" transform="rotate(0,170,298)"/><rect x="162" y="306" width="16" height="16" transform="rotate(0,170,314)"/><path d="M 162 322v 16h 16v -8a 8 8, 0, 0, 0, -8 -8" transform="rotate(90,170,330)"/><path d="M 162 354v 16h 16v -8a 8 8, 0, 0, 0, -8 -8" transform="rotate(-90,170,362)"/><rect x="162" y="370" width="16" height="16" transform="rotate(0,170,378)"/><rect x="162" y="386" width="16" height="16" transform="rotate(0,170,394)"/><rect x="162" y="402" width="16" height="16" transform="rotate(0,170,410)"/><rect x="162" y="418" width="16" height="16" transform="rotate(0,170,426)"/><path d="M 162 434v 16h 8a 8 8, 0, 0, 0, 0 -16" transform="rotate(90,170,442)"/><path d="M 162 466v 16h 8a 8 8, 0, 0, 0, 0 -16" transform="rotate(0,170,474)"/><circle cx="186" cy="26" r="8" transform="rotate(0,186,26)"/><rect x="178" y="82" width="16" height="16" transform="rotate(0,186,90)"/><rect x="178" y="98" width="16" height="16" transform="rotate(0,186,106)"/><rect x="178" y="114" width="16" height="16" transform="rotate(0,186,122)"/><rect x="178" y="130" width="16" height="16" transform="rotate(0,186,138)"/><path d="M 178 162v 16h 16v -8a 8 8, 0, 0, 0, -8 -8" transform="rotate(-90,186,170)"/><rect x="178" y="178" width="16" height="16" transform="rotate(0,186,186)"/><rect x="178" y="194" width="16" height="16" transform="rotate(0,186,202)"/><rect x="178" y="210" width="16" height="16" transform="rotate(0,186,218)"/><rect x="178" y="226" width="16" height="16" transform="rotate(0,186,234)"/><path d="M 178 242v 16h 16v -8a 8 8, 0, 0, 0, -8 -8" transform="rotate(180,186,250)"/><rect x="178" y="274" width="16" height="16" transform="rotate(0,186,282)"/><rect x="178" y="306" width="16" height="16" transform="rotate(0,186,314)"/><rect x="178" y="354" width="16" height="16" transform="rotate(0,186,362)"/><rect x="178" y="370" width="16" height="16" transform="rotate(0,186,378)"/><path d="M 178 402v 16h 16v -8a 8 8, 0, 0, 0, -8 -8" transform="rotate(0,186,410)"/><path d="M 178 418v 16h 16v -8a 8 8, 0, 0, 0, -8 -8" transform="rotate(90,186,426)"/><path d="M 194 66v 16h 8a 8 8, 0, 0, 0, 0 -16" transform="rotate(-90,202,74)"/><path d="M 194 82v 16h 16v -8a 8 8, 0, 0, 0, -8 -8" transform="rotate(90,202,90)"/><path d="M 194 130v 16h 8a 8 8, 0, 0, 0, 0 -16" transform="rotate(0,202,138)"/><path d="M 194 162v 16h 16v -8a 8 8, 0, 0, 0, -8 -8" transform="rotate(0,202,170)"/><rect x="194" y="178" width="16" height="16" transform="rotate(0,202,186)"/><rect x="194" y="226" width="16" height="16" transform="rotate(0,202,234)"/><rect x="194" y="242" width="16" height="16" transform="rotate(0,202,250)"/><path d="M 194 274v 16h 8a 8 8, 0, 0, 0, 0 -16" transform="rotate(0,202,282)"/><path d="M 194 306v 16h 8a 8 8, 0, 0, 0, 0 -16" transform="rotate(0,202,314)"/><rect x="194" y="354" width="16" height="16" transform="rotate(0,202,362)"/><rect x="194" y="370" width="16" height="16" transform="rotate(0,202,378)"/><path d="M 194 386v 16h 16v -8a 8 8, 0, 0, 0, -8 -8" transform="rotate(180,202,394)"/><path d="M 194 450v 16h 8a 8 8, 0, 0, 0, 0 -16" transform="rotate(180,202,458)"/><circle cx="218" cy="122" r="8" transform="rotate(0,218,122)"/><path d="M 210 146v 16h 8a 8 8, 0, 0, 0, 0 -16" transform="rotate(180,218,154)"/><path d="M 210 178v 16h 8a 8 8, 0, 0, 0, 0 -16" transform="rotate(0,218,186)"/><path d="M 210 210v 16h 8a 8 8, 0, 0, 0, 0 -16" transform="rotate(-90,218,218)"/><rect x="210" y="226" width="16" height="16" transform="rotate(0,218,234)"/><rect x="210" y="242" width="16" height="16" transform="rotate(0,218,250)"/><path d="M 210 258v 16h 8a 8 8, 0, 0, 0, 0 -16" transform="rotate(90,218,266)"/><circle cx="218" cy="298" r="8" transform="rotate(0,218,298)"/><rect x="210" y="354" width="16" height="16" transform="rotate(0,218,362)"/><path d="M 210 386v 16h 8a 8 8, 0, 0, 0, 0 -16" transform="rotate(0,218,394)"/><path d="M 210 434v 16h 8a 8 8, 0, 0, 0, 0 -16" transform="rotate(-90,218,442)"/><rect x="210" y="450" width="16" height="16" transform="rotate(0,218,458)"/><path d="M 210 466v 16h 16v -8a 8 8, 0, 0, 0, -8 -8" transform="rotate(180,218,474)"/><path d="M 226 34v 16h 16v -8a 8 8, 0, 0, 0, -8 -8" transform="rotate(-90,234,42)"/><path d="M 226 50v 16h 16v -8a 8 8, 0, 0, 0, -8 -8" transform="rotate(180,234,58)"/><path d="M 226 98v 16h 8a 8 8, 0, 0, 0, 0 -16" transform="rotate(180,234,106)"/><path d="M 226 130v 16h 16v -8a 8 8, 0, 0, 0, -8 -8" transform="rotate(-90,234,138)"/><rect x="226" y="146" width="16" height="16" transform="rotate(0,234,154)"/><rect x="226" y="242" width="16" height="16" transform="rotate(0,234,250)"/><path d="M 226 274v 16h 8a 8 8, 0, 0, 0, 0 -16" transform="rotate(180,234,282)"/><path d="M 226 322v 16h 8a 8 8, 0, 0, 0, 0 -16" transform="rotate(-90,234,330)"/><rect x="226" y="338" width="16" height="16" transform="rotate(0,234,346)"/><rect x="226" y="354" width="16" height="16" transform="rotate(0,234,362)"/><path d="M 226 370v 16h 16v -8a 8 8, 0, 0, 0, -8 -8" transform="rotate(180,234,378)"/><path d="M 226 402v 16h 8a 8 8, 0, 0, 0, 0 -16" transform="rotate(-90,234,410)"/><path d="M 226 418v 16h 8a 8 8, 0, 0, 0, 0 -16" transform="rotate(90,234,426)"/><path d="M 226 450v 16h 16v -8a 8 8, 0, 0, 0, -8 -8" transform="rotate(0,234,458)"/><path d="M 226 466v 16h 16v -8a 8 8, 0, 0, 0, -8 -8" transform="rotate(90,234,474)"/><path d="M 242 18v 16h 8a 8 8, 0, 0, 0, 0 -16" transform="rotate(-90,250,26)"/><rect x="242" y="34" width="16" height="16" transform="rotate(0,250,42)"/><rect x="242" y="50" width="16" height="16" transform="rotate(0,250,58)"/><path d="M 242 82v 16h 8a 8 8, 0, 0, 0, 0 -16" transform="rotate(-90,250,90)"/><rect x="242" y="98" width="16" height="16" transform="rotate(0,250,106)"/><rect x="242" y="114" width="16" height="16" transform="rotate(0,250,122)"/><rect x="242" y="130" width="16" height="16" transform="rotate(0,250,138)"/><rect x="242" y="146" width="16" height="16" transform="rotate(0,250,154)"/><rect x="242" y="162" width="16" height="16" transform="rotate(0,250,170)"/><rect x="242" y="178" width="16" height="16" transform="rotate(0,250,186)"/><path d="M 242 194v 16h 16v -8a 8 8, 0, 0, 0, -8 -8" transform="rotate(180,250,202)"/><path d="M 242 242v 16h 8a 8 8, 0, 0, 0, 0 -16" transform="rotate(0,250,250)"/><path d="M 242 274v 16h 8a 8 8, 0, 0, 0, 0 -16" transform="rotate(0,250,282)"/><circle cx="250" cy="314" r="8" transform="rotate(0,250,314)"/><rect x="242" y="338" width="16" height="16" transform="rotate(0,250,346)"/><path d="M 242 370v 16h 16v -8a 8 8, 0, 0, 0, -8 -8" transform="rotate(0,250,378)"/><path d="M 242 386v 16h 8a 8 8, 0, 0, 0, 0 -16" transform="rotate(90,250,394)"/><rect x="258" y="34" width="16" height="16" transform="rotate(0,266,42)"/><path d="M 258 50v 16h 16v -8a 8 8, 0, 0, 0, -8 -8" transform="rotate(90,266,58)"/><path d="M 258 98v 16h 8a 8 8, 0, 0, 0, 0 -16" transform="rotate(0,266,106)"/><rect x="258" y="130" width="16" height="16" transform="rotate(0,266,138)"/><rect x="258" y="162" width="16" height="16" transform="rotate(0,266,170)"/><path d="M 258 194v 16h 8a 8 8, 0, 0, 0, 0 -16" transform="rotate(0,266,202)"/><circle cx="266" cy="266" r="8" transform="rotate(0,266,266)"/><path d="M 258 322v 16h 8a 8 8, 0, 0, 0, 0 -16" transform="rotate(-90,266,330)"/><rect x="258" y="338" width="16" height="16" transform="rotate(0,266,346)"/><path d="M 258 354v 16h 8a 8 8, 0, 0, 0, 0 -16" transform="rotate(90,266,362)"/><path d="M 258 402v 16h 8a 8 8, 0, 0, 0, 0 -16" transform="rotate(-90,266,410)"/><path d="M 258 418v 16h 16v -8a 8 8, 0, 0, 0, -8 -8" transform="rotate(180,266,426)"/><path d="M 258 466v 16h 8a 8 8, 0, 0, 0, 0 -16" transform="rotate(180,266,474)"/><rect x="274" y="34" width="16" height="16" transform="rotate(0,282,42)"/><path d="M 274 114v 16h 8a 8 8, 0, 0, 0, 0 -16" transform="rotate(-90,282,122)"/><path d="M 274 130v 16h 16v -8a 8 8, 0, 0, 0, -8 -8" transform="rotate(90,282,138)"/><path d="M 274 162v 16h 8a 8 8, 0, 0, 0, 0 -16" transform="rotate(0,282,170)"/><path d="M 274 210v 16h 16v -8a 8 8, 0, 0, 0, -8 -8" transform="rotate(-90,282,218)"/><rect x="274" y="226" width="16" height="16" transform="rotate(0,282,234)"/><path d="M 274 242v 16h 16v -8a 8 8, 0, 0, 0, -8 -8" transform="rotate(180,282,250)"/><circle cx="282" cy="314" r="8" transform="rotate(0,282,314)"/><path d="M 274 338v 16h 8a 8 8, 0, 0, 0, 0 -16" transform="rotate(0,282,346)"/><rect x="274" y="418" width="16" height="16" transform="rotate(0,282,426)"/><path d="M 274 434v 16h 16v -8a 8 8, 0, 0, 0, -8 -8" transform="rotate(180,282,442)"/><rect x="274" y="466" width="16" height="16" transform="rotate(0,282,474)"/><path d="M 290 18v 16h 16v -8a 8 8, 0, 0, 0, -8 -8" transform="rotate(-90,298,26)"/><rect x="290" y="34" width="16" height="16" transform="rotate(0,298,42)"/><rect x="290" y="50" width="16" height="16" transform="rotate(0,298,58)"/><rect x="290" y="66" width="16" height="16" transform="rotate(0,298,74)"/><rect x="290" y="82" width="16" height="16" transform="rotate(0,298,90)"/><path d="M 290 98v 16h 16v -8a 8 8, 0, 0, 0, -8 -8" transform="rotate(180,298,106)"/><path d="M 290 194v 16h 8a 8 8, 0, 0, 0, 0 -16" transform="rotate(-90,298,202)"/><rect x="290" y="210" width="16" height="16" transform="rotate(0,298,218)"/><rect x="290" y="226" width="16" height="16" transform="rotate(0,298,234)"/><rect x="290" y="242" width="16" height="16" transform="rotate(0,298,250)"/><rect x="290" y="258" width="16" height="16" transform="rotate(0,298,266)"/><path d="M 290 274v 16h 8a 8 8, 0, 0, 0, 0 -16" transform="rotate(90,298,282)"/><circle cx="298" cy="330" r="8" transform="rotate(0,298,330)"/><path d="M 290 354v 16h 8a 8 8, 0, 0, 0, 0 -16" transform="rotate(-90,298,362)"/><rect x="290" y="370" width="16" height="16" transform="rotate(0,298,378)"/><rect x="290" y="386" width="16" height="16" transform="rotate(0,298,394)"/><rect x="290" y="402" width="16" height="16" transform="rotate(0,298,410)"/><rect x="290" y="418" width="16" height="16" transform="rotate(0,298,426)"/><rect x="290" y="434" width="16" height="16" transform="rotate(0,298,442)"/><rect x="290" y="450" width="16" height="16" transform="rotate(0,298,458)"/><path d="M 290 466v 16h 16v -8a 8 8, 0, 0, 0, -8 -8" transform="rotate(90,298,474)"/><rect x="306" y="18" width="16" height="16" transform="rotate(0,314,26)"/><rect x="306" y="82" width="16" height="16" transform="rotate(0,314,90)"/><rect x="306" y="98" width="16" height="16" transform="rotate(0,314,106)"/><rect x="306" y="114" width="16" height="16" transform="rotate(0,314,122)"/><rect x="306" y="130" width="16" height="16" transform="rotate(0,314,138)"/><rect x="306" y="146" width="16" height="16" transform="rotate(0,314,154)"/><rect x="306" y="162" width="16" height="16" transform="rotate(0,314,170)"/><path d="M 306 178v 16h 16v -8a 8 8, 0, 0, 0, -8 -8" transform="rotate(180,314,186)"/><rect x="306" y="370" width="16" height="16" transform="rotate(0,314,378)"/><rect x="306" y="386" width="16" height="16" transform="rotate(0,314,394)"/><rect x="306" y="402" width="16" height="16" transform="rotate(0,314,410)"/><rect x="306" y="418" width="16" height="16" transform="rotate(0,314,426)"/><path d="M 306 434v 16h 16v -8a 8 8, 0, 0, 0, -8 -8" transform="rotate(90,314,442)"/><rect x="322" y="18" width="16" height="16" transform="rotate(0,330,26)"/><path d="M 322 82v 16h 8a 8 8, 0, 0, 0, 0 -16" transform="rotate(0,330,90)"/><rect x="322" y="130" width="16" height="16" transform="rotate(0,330,138)"/><rect x="322" y="162" width="16" height="16" transform="rotate(0,330,170)"/><path d="M 322 178v 16h 16v -8a 8 8, 0, 0, 0, -8 -8" transform="rotate(90,330,186)"/><path d="M 322 210v 16h 8a 8 8, 0, 0, 0, 0 -16" transform="rotate(180,330,218)"/><circle cx="330" cy="282" r="8" transform="rotate(0,330,282)"/><path d="M 322 322v 16h 8a 8 8, 0, 0, 0, 0 -16" transform="rotate(-90,330,330)"/><path d="M 322 338v 16h 16v -8a 8 8, 0, 0, 0, -8 -8" transform="rotate(180,330,346)"/><rect x="322" y="370" width="16" height="16" transform="rotate(0,330,378)"/><rect x="322" y="386" width="16" height="16" transform="rotate(0,330,394)"/><rect x="322" y="402" width="16" height="16" transform="rotate(0,330,410)"/><path d="M 322 418v 16h 16v -8a 8 8, 0, 0, 0, -8 -8" transform="rotate(90,330,426)"/><path d="M 322 466v 16h 8a 8 8, 0, 0, 0, 0 -16" transform="rotate(180,330,474)"/><path d="M 338 18v 16h 8a 8 8, 0, 0, 0, 0 -16" transform="rotate(0,346,26)"/><path d="M 338 50v 16h 8a 8 8, 0, 0, 0, 0 -16" transform="rotate(-90,346,58)"/><path d="M 338 66v 16h 8a 8 8, 0, 0, 0, 0 -16" transform="rotate(90,346,74)"/><path d="M 338 114v 16h 8a 8 8, 0, 0, 0, 0 -16" transform="rotate(-90,346,122)"/><path d="M 338 130v 16h 16v -8a 8 8, 0, 0, 0, -8 -8" transform="rotate(90,346,138)"/><rect x="338" y="162" width="16" height="16" transform="rotate(0,346,170)"/><path d="M 338 210v 16h 8a 8 8, 0, 0, 0, 0 -16" transform="rotate(0,346,218)"/><path d="M 338 290v 16h 8a 8 8, 0, 0, 0, 0 -16" transform="rotate(180,346,298)"/><rect x="338" y="338" width="16" height="16" transform="rotate(0,346,346)"/><rect x="338" y="354" width="16" height="16" transform="rotate(0,346,362)"/><rect x="338" y="370" width="16" height="16" transform="rotate(0,346,378)"/><rect x="338" y="386" width="16" height="16" transform="rotate(0,346,394)"/><rect x="338" y="402" width="16" height="16" transform="rotate(0,346,410)"/><path d="M 338 434v 16h 8a 8 8, 0, 0, 0, 0 -16" transform="rotate(-90,346,442)"/><rect x="338" y="450" width="16" height="16" transform="rotate(0,346,458)"/><rect x="338" y="466" width="16" height="16" transform="rotate(0,346,474)"/><path d="M 354 146v 16h 16v -8a 8 8, 0, 0, 0, -8 -8" transform="rotate(-90,362,154)"/><rect x="354" y="162" width="16" height="16" transform="rotate(0,362,170)"/><path d="M 354 274v 16h 8a 8 8, 0, 0, 0, 0 -16" transform="rotate(-90,362,282)"/><rect x="354" y="290" width="16" height="16" transform="rotate(0,362,298)"/><path d="M 354 306v 16h 8a 8 8, 0, 0, 0, 0 -16" transform="rotate(90,362,314)"/><rect x="354" y="338" width="16" height="16" transform="rotate(0,362,346)"/><rect x="354" y="402" width="16" height="16" transform="rotate(0,362,410)"/><path d="M 354 418v 16h 8a 8 8, 0, 0, 0, 0 -16" transform="rotate(90,362,426)"/><path d="M 354 450v 16h 16v -8a 8 8, 0, 0, 0, -8 -8" transform="rotate(0,362,458)"/><path d="M 354 466v 16h 16v -8a 8 8, 0, 0, 0, -8 -8" transform="rotate(90,362,474)"/><rect x="370" y="146" width="16" height="16" transform="rotate(0,378,154)"/><rect x="370" y="162" width="16" height="16" transform="rotate(0,378,170)"/><path d="M 370 242v 16h 8a 8 8, 0, 0, 0, 0 -16" transform="rotate(-90,378,250)"/><path d="M 370 258v 16h 8a 8 8, 0, 0, 0, 0 -16" transform="rotate(90,378,266)"/><rect x="370" y="290" width="16" height="16" transform="rotate(0,378,298)"/><path d="M 370 322v 16h 16v -8a 8 8, 0, 0, 0, -8 -8" transform="rotate(-90,378,330)"/><rect x="370" y="338" width="16" height="16" transform="rotate(0,378,346)"/><circle cx="378" cy="378" r="8" transform="rotate(0,378,378)"/><rect x="370" y="402" width="16" height="16" transform="rotate(0,378,410)"/><rect x="386" y="146" width="16" height="16" transform="rotate(0,394,154)"/><rect x="386" y="162" width="16" height="16" transform="rotate(0,394,170)"/><path d="M 386 226v 16h 8a 8 8, 0, 0, 0, 0 -16" transform="rotate(180,394,234)"/><path d="M 386 274v 16h 16v -8a 8 8, 0, 0, 0, -8 -8" transform="rotate(-90,394,282)"/><rect x="386" y="290" width="16" height="16" transform="rotate(0,394,298)"/><rect x="386" y="306" width="16" height="16" transform="rotate(0,394,314)"/><rect x="386" y="322" width="16" height="16" transform="rotate(0,394,330)"/><rect x="386" y="338" width="16" height="16" transform="rotate(0,394,346)"/><rect x="386" y="402" width="16" height="16" transform="rotate(0,394,410)"/><path d="M 386 418v 16h 16v -8a 8 8, 0, 0, 0, -8 -8" transform="rotate(180,394,426)"/><circle cx="394" cy="474" r="8" transform="rotate(0,394,474)"/><rect x="402" y="146" width="16" height="16" transform="rotate(0,410,154)"/><rect x="402" y="162" width="16" height="16" transform="rotate(0,410,170)"/><path d="M 402 210v 16h 16v -8a 8 8, 0, 0, 0, -8 -8" transform="rotate(-90,410,218)"/><rect x="402" y="226" width="16" height="16" transform="rotate(0,410,234)"/><path d="M 402 242v 16h 16v -8a 8 8, 0, 0, 0, -8 -8" transform="rotate(180,410,250)"/><path d="M 402 274v 16h 8a 8 8, 0, 0, 0, 0 -16" transform="rotate(0,410,282)"/><rect x="402" y="338" width="16" height="16" transform="rotate(0,410,346)"/><rect x="402" y="354" width="16" height="16" transform="rotate(0,410,362)"/><rect x="402" y="370" width="16" height="16" transform="rotate(0,410,378)"/><rect x="402" y="386" width="16" height="16" transform="rotate(0,410,394)"/><rect x="402" y="402" width="16" height="16" transform="rotate(0,410,410)"/><rect x="402" y="418" width="16" height="16" transform="rotate(0,410,426)"/><rect x="402" y="434" width="16" height="16" transform="rotate(0,410,442)"/><path d="M 402 450v 16h 8a 8 8, 0, 0, 0, 0 -16" transform="rotate(90,410,458)"/><rect x="418" y="146" width="16" height="16" transform="rotate(0,426,154)"/><rect x="418" y="162" width="16" height="16" transform="rotate(0,426,170)"/><path d="M 418 178v 16h 8a 8 8, 0, 0, 0, 0 -16" transform="rotate(90,426,186)"/><rect x="418" y="210" width="16" height="16" transform="rotate(0,426,218)"/><rect x="418" y="226" width="16" height="16" transform="rotate(0,426,234)"/><rect x="418" y="242" width="16" height="16" transform="rotate(0,426,250)"/><path d="M 418 258v 16h 16v -8a 8 8, 0, 0, 0, -8 -8" transform="rotate(180,426,266)"/><path d="M 418 306v 16h 16v -8a 8 8, 0, 0, 0, -8 -8" transform="rotate(-90,426,314)"/><rect x="418" y="322" width="16" height="16" transform="rotate(0,426,330)"/><rect x="418" y="338" width="16" height="16" transform="rotate(0,426,346)"/><rect x="418" y="354" width="16" height="16" transform="rotate(0,426,362)"/><rect x="418" y="386" width="16" height="16" transform="rotate(0,426,394)"/><rect x="418" y="434" width="16" height="16" transform="rotate(0,426,442)"/><rect x="434" y="146" width="16" height="16" transform="rotate(0,442,154)"/><path d="M 434 162v 16h 16v -8a 8 8, 0, 0, 0, -8 -8" transform="rotate(90,442,170)"/><rect x="434" y="210" width="16" height="16" transform="rotate(0,442,218)"/><rect x="434" y="258" width="16" height="16" transform="rotate(0,442,266)"/><rect x="434" y="274" width="16" height="16" transform="rotate(0,442,282)"/><rect x="434" y="290" width="16" height="16" transform="rotate(0,442,298)"/><rect x="434" y="306" width="16" height="16" transform="rotate(0,442,314)"/><rect x="434" y="322" width="16" height="16" transform="rotate(0,442,330)"/><rect x="434" y="338" width="16" height="16" transform="rotate(0,442,346)"/><rect x="434" y="354" width="16" height="16" transform="rotate(0,442,362)"/><rect x="434" y="370" width="16" height="16" transform="rotate(0,442,378)"/><rect x="434" y="386" width="16" height="16" transform="rotate(0,442,394)"/><path d="M 434 402v 16h 16v -8a 8 8, 0, 0, 0, -8 -8" transform="rotate(180,442,410)"/><path d="M 434 434v 16h 16v -8a 8 8, 0, 0, 0, -8 -8" transform="rotate(0,442,442)"/><path d="M 434 450v 16h 16v -8a 8 8, 0, 0, 0, -8 -8" transform="rotate(180,442,458)"/><path d="M 450 146v 16h 8a 8 8, 0, 0, 0, 0 -16" transform="rotate(0,458,154)"/><path d="M 450 178v 16h 8a 8 8, 0, 0, 0, 0 -16" transform="rotate(-90,458,186)"/><rect x="450" y="194" width="16" height="16" transform="rotate(0,458,202)"/><rect x="450" y="210" width="16" height="16" transform="rotate(0,458,218)"/><path d="M 450 226v 16h 8a 8 8, 0, 0, 0, 0 -16" transform="rotate(90,458,234)"/><rect x="450" y="258" width="16" height="16" transform="rotate(0,458,266)"/><rect x="450" y="306" width="16" height="16" transform="rotate(0,458,314)"/><rect x="450" y="322" width="16" height="16" transform="rotate(0,458,330)"/><path d="M 450 338v 16h 16v -8a 8 8, 0, 0, 0, -8 -8" transform="rotate(90,458,346)"/><rect x="450" y="402" width="16" height="16" transform="rotate(0,458,410)"/><path d="M 450 418v 16h 8a 8 8, 0, 0, 0, 0 -16" transform="rotate(90,458,426)"/><path d="M 450 450v 16h 8a 8 8, 0, 0, 0, 0 -16" transform="rotate(0,458,458)"/><circle cx="474" cy="170" r="8" transform="rotate(0,474,170)"/><path d="M 466 258v 16h 8a 8 8, 0, 0, 0, 0 -16" transform="rotate(0,474,266)"/><path d="M 466 290v 16h 8a 8 8, 0, 0, 0, 0 -16" transform="rotate(-90,474,298)"/><rect x="466" y="306" width="16" height="16" transform="rotate(0,474,314)"/><path d="M 466 322v 16h 16v -8a 8 8, 0, 0, 0, -8 -8" transform="rotate(90,474,330)"/><path d="M 466 402v 16h 8a 8 8, 0, 0, 0, 0 -16" transform="rotate(0,474,410)"/><circle cx="474" cy="442" r="8" transform="rotate(0,474,442)"/></clipPath><clipPath id="clip-path-corners-square-color-0-0"><path clip-rule="evenodd" d="M 18 58v 32a 40 40, 0, 0, 0, 40 40h 32a 40 40, 0, 0, 0, 40 -40v -32a 40 40, 0, 0, 0, -40 -40h -32a 40 40, 0, 0, 0, -40 40M 58 34h 32a 24 24, 0, 0, 1, 24 24v 32a 24 24, 0, 0, 1, -24 24h -32a 24 24, 0, 0, 1, -24 -24v -32a 24 24, 0, 0, 1, 24 -24" transform="rotate(0,74,74)"/></clipPath><clipPath id="clip-path-corners-dot-color-0-0"><circle cx="74" cy="74" r="24" transform="rotate(0,74,74)"/></clipPath><clipPath id="clip-path-corners-square-color-1-0"><path clip-rule="evenodd" d="M 370 58v 32a 40 40, 0, 0, 0, 40 40h 32a 40 40, 0, 0, 0, 40 -40v -32a 40 40, 0, 0, 0, -40 -40h -32a 40 40, 0, 0, 0, -40 40M 410 34h 32a 24 24, 0, 0, 1, 24 24v 32a 24 24, 0, 0, 1, -24 24h -32a 24 24, 0, 0, 1, -24 -24v -32a 24 24, 0, 0, 1, 24 -24" transform="rotate(90,426,74)"/></clipPath><clipPath id="clip-path-corners-dot-color-1-0"><circle cx="426" cy="74" r="24" transform="rotate(90,426,74)"/></clipPath><clipPath id="clip-path-corners-square-color-0-1"><path clip-rule="evenodd" d="M 18 410v 32a 40 40, 0, 0, 0, 40 40h 32a 40 40, 0, 0, 0, 40 -40v -32a 40 40, 0, 0, 0, -40 -40h -32a 40 40, 0, 0, 0, -40 40M 58 386h 32a 24 24, 0, 0, 1, 24 24v 32a 24 24, 0, 0, 1, -24 24h -32a 24 24, 0, 0, 1, -24 -24v -32a 24 24, 0, 0, 1, 24 -24" transform="rotate(-90,74,426)"/></clipPath><clipPath id="clip-path-corners-dot-color-0-1"><circle cx="74" cy="426" r="24" transform="rotate(-90,74,426)"/></clipPath></defs><rect x="0" y="0" height="500" width="500" clip-path="url('#clip-path-background-color')" fill="#fff"/><rect x="0" y="0" height="500" width="500" clip-path="url('#clip-path-dot-color')" fill="#636A88"/><rect x="18" y="18" height="112" width="112" clip-path="url('#clip-path-corners-square-color-0-0')" fill="#636A88"/><rect x="50" y="50" height="48" width="48" clip-path="url('#clip-path-corners-dot-color-0-0')" fill="#636A88"/><rect x="370" y="18" height="112" width="112" clip-path="url('#clip-path-corners-square-color-1-0')" fill="#636A88"/><rect x="402" y="50" height="48" width="48" clip-path="url('#clip-path-corners-dot-color-1-0')" fill="#636A88"/><rect x="18" y="370" height="112" width="112" clip-path="url('#clip-path-corners-square-color-0-1')" fill="#636A88"/><rect x="50" y="402" height="48" width="48" clip-path="url('#clip-path-corners-dot-color-0-1')" fill="#636A88"/></svg>