<?xml version="1.0" standalone="no"?>
<svg xmlns="http://www.w3.org/2000/svg" width="500" height="500"><defs><clipPath id="clip-path-dot-color"><path d="M 19 145v 14h 7a 7 7, 0, 0, 0, 0 -14" transform="rotate(180,26,152)"/><path d="M 19 173v 14h 14v -7a 7 7, 0, 0, 0, -7 -7" transform="rotate(-90,26,180)"/><path d="M 19 187v 14h 7a 7 7, 0, 0, 0, 0 -14" transform="rotate(90,26,194)"/><path d="M 19 229v 14h 7a 7 7, 0, 0, 0, 0 -14" transform="rotate(-90,26,236)"/><rect x="19" y="243" width="14" height="14" transform="rotate(0,26,250)"/><rect x="19" y="257" width="14" height="14" transform="rotate(0,26,264)"/><rect x="19" y="271" width="14" height="14" transform="rotate(0,26,278)"/><path d="M 19 285v 14h 7a 7 7, 0, 0, 0, 0 -14" transform="rotate(90,26,292)"/><path d="M 19 313v 14h 7a 7 7, 0, 0, 0, 0 -14" transform="rotate(180,26,320)"/><path d="M 19 341v 14h 7a 7 7, 0, 0, 0, 0 -14" transform="rotate(180,26,348)"/><path d="M 33 131v 14h 14v -7a 7 7, 0, 0, 0, -7 -7" transform="rotate(-90,40,138)"/><rect x="33" y="145" width="14" height="14" transform="rotate(0,40,152)"/><path d="M 33 173v 14h 7a 7 7, 0, 0, 0, 0 -14" transform="rotate(0,40,180)"/><circle cx="40" cy="208" r="7" transform="rotate(0,40,208)"/><path d="M 33 271v 14h 7a 7 7, 0, 0, 0, 0 -14" transform="rotate(0,40,278)"/><path d="M 33 313v 14h 7a 7 7, 0, 0, 0, 0 -14" transform="rotate(0,40,320)"/><path d="M 33 341v 14h 14v -7a 7 7, 0, 0, 0, -7 -7" transform="rotate(0,40,348)"/><path d="M 33 355v 14h 7a 7 7, 0, 0, 0, 0 -14" transform="rotate(90,40,362)"/><path d="M 47 131v 14h 14v -7a 7 7, 0, 0, 0, -7 -7" transform="rotate(0,54,138)"/><rect x="47" y="145" width="14" height="14" transform="rotate(0,54,152)"/><path d="M 47 159v 14h 14v -7a 7 7, 0, 0, 0, -7 -7" transform="rotate(180,54,166)"/><path d="M 47 229v 14h 14v -7a 7 7, 0, 0, 0, -7 -7" transform="rotate(-90,54,236)"/><rect x="47" y="243" width="14" height="14" transform="rotate(0,54,250)"/><path d="M 47 257v 14h 7a 7 7, 0, 0, 0, 0 -14" transform="rotate(90,54,264)"/><path d="M 47 285v 14h 14v -7a 7 7, 0, 0, 0, -7 -7" transform="rotate(-90,54,292)"/><path d="M 47 299v 14h 7a 7 7, 0, 0, 0, 0 -14" transform="rotate(90,54,306)"/><path d="M 47 327v 14h 7a 7 7, 0, 0, 0, 0 -14" transform="rotate(180,54,334)"/><path d="M 61 145v 14h 14v -7a 7 7, 0, 0, 0, -7 -7" transform="rotate(0,68,152)"/><rect x="61" y="159" width="14" height="14" transform="rotate(0,68,166)"/><rect x="61" y="173" width="14" height="14" transform="rotate(0,68,180)"/><rect x="61" y="187" width="14" height="14" transform="rotate(0,68,194)"/><path d="M 61 201v 14h 7a 7 7, 0, 0, 0, 0 -14" transform="rotate(90,68,208)"/><path d="M 61 229v 14h 7a 7 7, 0, 0, 0, 0 -14" transform="rotate(0,68,236)"/><path d="M 61 285v 14h 7a 7 7, 0, 0, 0, 0 -14" transform="rotate(0,68,292)"/><path d="M 61 327v 14h 14v -7a 7 7, 0, 0, 0, -7 -7" transform="rotate(0,68,334)"/><path d="M 61 341v 14h 7a 7 7, 0, 0, 0, 0 -14" transform="rotate(90,68,348)"/><path d="M 75 159v 14h 14v -7a 7 7, 0, 0, 0, -7 -7" transform="rotate(0,82,166)"/><rect x="75" y="173" width="14" height="14" transform="rotate(0,82,180)"/><path d="M 75 299v 14h 14v -7a 7 7, 0, 0, 0, -7 -7" transform="rotate(-90,82,306)"/><path d="M 75 313v 14h 14v -7a 7 7, 0, 0, 0, -7 -7" transform="rotate(180,82,320)"/><circle cx="82" cy="362" r="7" transform="rotate(0,82,362)"/><circle cx="96" cy="152" r="7" transform="rotate(0,96,152)"/><path d="M 89 173v 14h 7a 7 7, 0, 0, 0, 0 -14" transform="rotate(0,96,180)"/><path d="M 89 201v 14h 7a 7 7, 0, 0, 0, 0 -14" transform="rotate(-90,96,208)"/><rect x="89" y="215" width="14" height="14" transform="rotate(0,96,222)"/><path d="M 89 229v 14h 7a 7 7, 0, 0, 0, 0 -14" transform="rotate(90,96,236)"/><path d="M 89 257v 14h 7a 7 7, 0, 0, 0, 0 -14" transform="rotate(-90,96,264)"/><rect x="89" y="271" width="14" height="14" transform="rotate(0,96,278)"/><rect x="89" y="285" width="14" height="14" transform="rotate(0,96,292)"/><rect x="89" y="299" width="14" height="14" transform="rotate(0,96,306)"/><path d="M 89 313v 14h 14v -7a 7 7, 0, 0, 0, -7 -7" transform="rotate(90,96,320)"/><circle cx="110" cy="138" r="7" transform="rotate(0,110,138)"/><path d="M 103 159v 14h 7a 7 7, 0, 0, 0, 0 -14" transform="rotate(180,110,166)"/><circle cx="110" cy="194" r="7" transform="rotate(0,110,194)"/><rect x="103" y="215" width="14" height="14" transform="rotate(0,110,222)"/><circle cx="110" cy="250" r="7" transform="rotate(0,110,250)"/><path d="M 103 271v 14h 7a 7 7, 0, 0, 0, 0 -14" transform="rotate(0,110,278)"/><path d="M 103 299v 14h 7a 7 7, 0, 0, 0, 0 -14" transform="rotate(0,110,306)"/><circle cx="110" cy="334" r="7" transform="rotate(0,110,334)"/><path d="M 103 355v 14h 7a 7 7, 0, 0, 0, 0 -14" transform="rotate(180,110,362)"/><path d="M 117 145v 14h 14v -7a 7 7, 0, 0, 0, -7 -7" transform="rotate(-90,124,152)"/><rect x="117" y="159" width="14" height="14" transform="rotate(0,124,166)"/><path d="M 117 173v 14h 7a 7 7, 0, 0, 0, 0 -14" transform="rotate(90,124,180)"/><path d="M 117 215v 14h 14v -7a 7 7, 0, 0, 0, -7 -7" transform="rotate(0,124,222)"/><path d="M 117 229v 14h 7a 7 7, 0, 0, 0, 0 -14" transform="rotate(90,124,236)"/><path d="M 117 257v 14h 7a 7 7, 0, 0, 0, 0 -14" transform="rotate(180,124,264)"/><path d="M 117 341v 14h 7a 7 7, 0, 0, 0, 0 -14" transform="rotate(-90,124,348)"/><path d="M 117 355v 14h 14v -7a 7 7, 0, 0, 0, -7 -7" transform="rotate(90,124,362)"/><path d="M 131 33v 14h 7a 7 7, 0, 0, 0, 0 -14" transform="rotate(-90,138,40)"/><rect x="131" y="47" width="14" height="14" transform="rotate(0,138,54)"/><path d="M 131 61v 14h 14v -7a 7 7, 0, 0, 0, -7 -7" transform="rotate(180,138,68)"/><path d="M 131 89v 14h 14v -7a 7 7, 0, 0, 0, -7 -7" transform="rotate(-90,138,96)"/><path d="M 131 103v 14h 7a 7 7, 0, 0, 0, 0 -14" transform="rotate(90,138,110)"/><rect x="131" y="145" width="14" height="14" transform="rotate(0,138,152)"/><circle cx="138" cy="208" r="7" transform="rotate(0,138,208)"/><path d="M 131 257v 14h 14v -7a 7 7, 0, 0, 0, -7 -7" transform="rotate(0,138,264)"/><rect x="131" y="271" width="14" height="14" transform="rotate(0,138,278)"/><path d="M 131 285v 14h 14v -7a 7 7, 0, 0, 0, -7 -7" transform="rotate(180,138,292)"/><circle cx="138" cy="320" r="7" transform="rotate(0,138,320)"/><path d="M 131 439v 14h 14v -7a 7 7, 0, 0, 0, -7 -7" transform="rotate(-90,138,446)"/><path d="M 131 453v 14h 7a 7 7, 0, 0, 0, 0 -14" transform="rotate(90,138,460)"/><path d="M 145 19v 14h 7a 7 7, 0, 0, 0, 0 -14" transform="rotate(180,152,26)"/><rect x="145" y="61" width="14" height="14" transform="rotate(0,152,68)"/><rect x="145" y="75" width="14" height="14" transform="rotate(0,152,82)"/><path d="M 145 89v 14h 14v -7a 7 7, 0, 0, 0, -7 -7" transform="rotate(90,152,96)"/><path d="M 145 117v 14h 14v -7a 7 7, 0, 0, 0, -7 -7" transform="rotate(-90,152,124)"/><rect x="145" y="131" width="14" height="14" transform="rotate(0,152,138)"/><rect x="145" y="145" width="14" height="14" transform="rotate(0,152,152)"/><rect x="145" y="159" width="14" height="14" transform="rotate(0,152,166)"/><rect x="145" y="173" width="14" height="14" transform="rotate(0,152,180)"/><path d="M 145 187v 14h 14v -7a 7 7, 0, 0, 0, -7 -7" transform="rotate(180,152,194)"/><path d="M 145 215v 14h 7a 7 7, 0, 0, 0, 0 -14" transform="rotate(180,152,222)"/><path d="M 145 243v 14h 7a 7 7, 0, 0, 0, 0 -14" transform="rotate(180,152,250)"/><path d="M 145 271v 14h 14v -7a 7 7, 0, 0, 0, -7 -7" transform="rotate(0,152,278)"/><rect x="145" y="285" width="14" height="14" transform="rotate(0,152,292)"/><path d="M 145 299v 14h 7a 7 7, 0, 0, 0, 0 -14" transform="rotate(90,152,306)"/><path d="M 145 327v 14h 7a 7 7, 0, 0, 0, 0 -14" transform="rotate(-90,152,334)"/><path d="M 145 341v 14h 14v -7a 7 7, 0, 0, 0, -7 -7" transform="rotate(180,152,348)"/><path d="M 145 383v 14h 14v -7a 7 7, 0, 0, 0, -7 -7" transform="rotate(-90,152,390)"/><path d="M 145 397v 14h 14v -7a 7 7, 0, 0, 0, -7 -7" transform="rotate(180,152,404)"/><path d="M 145 425v 14h 14v -7a 7 7, 0, 0, 0, -7 -7" transform="rotate(-90,152,432)"/><path d="M 145 439v 14h 14v -7a 7 7, 0, 0, 0, -7 -7" transform="rotate(90,152,446)"/><path d="M 145 467v 14h 7a 7 7, 0, 0, 0, 0 -14" transform="rotate(180,152,474)"/><rect x="159" y="19" width="14" height="14" transform="rotate(0,166,26)"/><path d="M 159 61v 14h 7a 7 7, 0, 0, 0, 0 -14" transform="rotate(0,166,68)"/><path d="M 159 103v 14h 7a 7 7, 0, 0, 0, 0 -14" transform="rotate(-90,166,110)"/><rect x="159" y="117" width="14" height="14" transform="rotate(0,166,124)"/><rect x="159" y="131" width="14" height="14" transform="rotate(0,166,138)"/><rect x="159" y="145" width="14" height="14" transform="rotate(0,166,152)"/><path d="M 159 173v 14h 14v -7a 7 7, 0, 0, 0, -7 -7" transform="rotate(0,166,180)"/><path d="M 159 187v 14h 14v -7a 7 7, 0, 0, 0, -7 -7" transform="rotate(90,166,194)"/><rect x="159" y="215" width="14" height="14" transform="rotate(0,166,222)"/><path d="M 159 243v 14h 14v -7a 7 7, 0, 0, 0, -7 -7" transform="rotate(0,166,250)"/><path d="M 159 257v 14h 7a 7 7, 0, 0, 0, 0 -14" transform="rotate(90,166,264)"/><rect x="159" y="341" width="14" height="14" transform="rotate(0,166,348)"/><path d="M 159 369v 14h 7a 7 7, 0, 0, 0, 0 -14" transform="rotate(-90,166,376)"/><rect x="159" y="383" width="14" height="14" transform="rotate(0,166,390)"/><rect x="159" y="397" width="14" height="14" transform="rotate(0,166,404)"/><rect x="159" y="411" width="14" height="14" transform="rotate(0,166,418)"/><rect x="159" y="425" width="14" height="14" transform="rotate(0,166,432)"/><path d="M 159 467v 14h 7a 7 7, 0, 0, 0, 0 -14" transform="rotate(0,166,474)"/><path d="M 173 19v 14h 7a 7 7, 0, 0, 0, 0 -14" transform="rotate(0,180,26)"/><circle cx="180" cy="54" r="7" transform="rotate(0,180,54)"/><path d="M 173 89v 14h 7a 7 7, 0, 0, 0, 0 -14" transform="rotate(180,180,96)"/><path d="M 173 131v 14h 14v -7a 7 7, 0, 0, 0, -7 -7" transform="rotate(0,180,138)"/><rect x="173" y="145" width="14" height="14" transform="rotate(0,180,152)"/><path d="M 173 159v 14h 14v -7a 7 7, 0, 0, 0, -7 -7" transform="rotate(180,180,166)"/><path d="M 173 201v 14h 7a 7 7, 0, 0, 0, 0 -14" transform="rotate(-90,180,208)"/><rect x="173" y="215" width="14" height="14" transform="rotate(0,180,222)"/><path d="M 173 229v 14h 7a 7 7, 0, 0, 0, 0 -14" transform="rotate(90,180,236)"/><path d="M 173 271v 14h 14v -7a 7 7, 0, 0, 0, -7 -7" transform="rotate(-90,180,278)"/><path d="M 173 285v 14h 7a 7 7, 0, 0, 0, 0 -14" transform="rotate(90,180,292)"/><rect x="173" y="341" width="14" height="14" transform="rotate(0,180,348)"/><path d="M 173 355v 14h 14v -7a 7 7, 0, 0, 0, -7 -7" transform="rotate(180,180,362)"/><rect x="173" y="397" width="14" height="14" transform="rotate(0,180,404)"/><rect x="173" y="425" width="14" height="14" transform="rotate(0,180,432)"/><path d="M 187 33v 14h 7a 7 7, 0, 0, 0, 0 -14" transform="rotate(180,194,40)"/><circle cx="194" cy="68" r="7" transform="rotate(0,194,68)"/><rect x="187" y="89" width="14" height="14" transform="rotate(0,194,96)"/><path d="M 187 103v 14h 7a 7 7, 0, 0, 0, 0 -14" transform="rotate(90,194,110)"/><rect x="187" y="145" width="14" height="14" transform="rotate(0,194,152)"/><rect x="187" y="159" width="14" height="14" transform="rotate(0,194,166)"/><path d="M 187 187v 14h 7a 7 7, 0, 0, 0, 0 -14" transform="rotate(180,194,194)"/><path d="M 187 215v 14h 7a 7 7, 0, 0, 0, 0 -14" transform="rotate(0,194,222)"/><rect x="187" y="271" width="14" height="14" transform="rotate(0,194,278)"/><path d="M 187 327v 14h 7a 7 7, 0, 0, 0, 0 -14" transform="rotate(-90,194,334)"/><rect x="187" y="341" width="14" height="14" transform="rotate(0,194,348)"/><rect x="187" y="355" width="14" height="14" transform="rotate(0,194,362)"/><path d="M 187 369v 14h 14v -7a 7 7, 0, 0, 0, -7 -7" transform="rotate(180,194,376)"/><rect x="187" y="397" width="14" height="14" transform="rotate(0,194,404)"/><rect x="187" y="411" width="14" height="14" transform="rotate(0,194,418)"/><path d="M 187 425v 14h 14v -7a 7 7, 0, 0, 0, -7 -7" transform="rotate(90,194,432)"/><path d="M 187 453v 14h 14v -7a 7 7, 0, 0, 0, -7 -7" transform="rotate(-90,194,460)"/><path d="M 187 467v 14h 7a 7 7, 0, 0, 0, 0 -14" transform="rotate(90,194,474)"/><path d="M 201 19v 14h 7a 7 7, 0, 0, 0, 0 -14" transform="rotate(-90,208,26)"/><rect x="201" y="33" width="14" height="14" transform="rotate(0,208,40)"/><path d="M 201 47v 14h 7a 7 7, 0, 0, 0, 0 -14" transform="rotate(90,208,54)"/><path d="M 201 75v 14h 14v -7a 7 7, 0, 0, 0, -7 -7" transform="rotate(-90,208,82)"/><path d="M 201 89v 14h 14v -7a 7 7, 0, 0, 0, -7 -7" transform="rotate(90,208,96)"/><rect x="201" y="145" width="14" height="14" transform="rotate(0,208,152)"/><rect x="201" y="159" width="14" height="14" transform="rotate(0,208,166)"/><rect x="201" y="173" width="14" height="14" transform="rotate(0,208,180)"/><rect x="201" y="187" width="14" height="14" transform="rotate(0,208,194)"/><circle cx="208" cy="236" r="7" transform="rotate(0,208,236)"/><rect x="201" y="271" width="14" height="14" transform="rotate(0,208,278)"/><path d="M 201 285v 14h 14v -7a 7 7, 0, 0, 0, -7 -7" transform="rotate(180,208,292)"/><path d="M 201 355v 14h 14v -7a 7 7, 0, 0, 0, -7 -7" transform="rotate(0,208,362)"/><rect x="201" y="369" width="14" height="14" transform="rotate(0,208,376)"/><rect x="201" y="383" width="14" height="14" transform="rotate(0,208,390)"/><path d="M 201 397v 14h 14v -7a 7 7, 0, 0, 0, -7 -7" transform="rotate(90,208,404)"/><path d="M 201 439v 14h 14v -7a 7 7, 0, 0, 0, -7 -7" transform="rotate(-90,208,446)"/><path d="M 201 453v 14h 14v -7a 7 7, 0, 0, 0, -7 -7" transform="rotate(90,208,460)"/><path d="M 215 33v 14h 7a 7 7, 0, 0, 0, 0 -14" transform="rotate(0,222,40)"/><rect x="215" y="75" width="14" height="14" transform="rotate(0,222,82)"/><circle cx="222" cy="110" r="7" transform="rotate(0,222,110)"/><path d="M 215 131v 14h 7a 7 7, 0, 0, 0, 0 -14" transform="rotate(-90,222,138)"/><rect x="215" y="145" width="14" height="14" transform="rotate(0,222,152)"/><rect x="215" y="187" width="14" height="14" transform="rotate(0,222,194)"/><rect x="215" y="201" width="14" height="14" transform="rotate(0,222,208)"/><path d="M 215 215v 14h 7a 7 7, 0, 0, 0, 0 -14" transform="rotate(90,222,222)"/><path d="M 215 243v 14h 7a 7 7, 0, 0, 0, 0 -14" transform="rotate(-90,222,250)"/><rect x="215" y="257" width="14" height="14" transform="rotate(0,222,264)"/><rect x="215" y="271" width="14" height="14" transform="rotate(0,222,278)"/><path d="M 215 285v 14h 14v -7a 7 7, 0, 0, 0, -7 -7" transform="rotate(90,222,292)"/><path d="M 215 313v 14h 14v -7a 7 7, 0, 0, 0, -7 -7" transform="rotate(-90,222,320)"/><path d="M 215 327v 14h 14v -7a 7 7, 0, 0, 0, -7 -7" transform="rotate(180,222,334)"/><rect x="215" y="383" width="14" height="14" transform="rotate(0,222,390)"/><path d="M 215 411v 14h 14v -7a 7 7, 0, 0, 0, -7 -7" transform="rotate(-90,222,418)"/><rect x="215" y="425" width="14" height="14" transform="rotate(0,222,432)"/><rect x="215" y="439" width="14" height="14" transform="rotate(0,222,446)"/><circle cx="236" cy="26" r="7" transform="rotate(0,236,26)"/><rect x="229" y="75" width="14" height="14" transform="rotate(0,236,82)"/><path d="M 229 89v 14h 14v -7a 7 7, 0, 0, 0, -7 -7" transform="rotate(180,236,96)"/><rect x="229" y="145" width="14" height="14" transform="rotate(0,236,152)"/><path d="M 229 159v 14h 7a 7 7, 0, 0, 0, 0 -14" transform="rotate(90,236,166)"/><path d="M 229 187v 14h 14v -7a 7 7, 0, 0, 0, -7 -7" transform="rotate(0,236,194)"/><path d="M 229 201v 14h 14v -7a 7 7, 0, 0, 0, -7 -7" transform="rotate(90,236,208)"/><circle cx="236" cy="236" r="7" transform="rotate(0,236,236)"/><rect x="229" y="313" width="14" height="14" transform="rotate(0,236,320)"/><rect x="229" y="327" width="14" height="14" transform="rotate(0,236,334)"/><path d="M 229 341v 14h 7a 7 7, 0, 0, 0, 0 -14" transform="rotate(90,236,348)"/><path d="M 229 369v 14h 14v -7a 7 7, 0, 0, 0, -7 -7" transform="rotate(-90,236,376)"/><rect x="229" y="383" width="14" height="14" transform="rotate(0,236,390)"/><rect x="229" y="411" width="14" height="14" transform="rotate(0,236,418)"/><rect x="229" y="425" width="14" height="14" transform="rotate(0,236,432)"/><rect x="229" y="439" width="14" height="14" transform="rotate(0,236,446)"/><circle cx="250" cy="54" r="7" transform="rotate(0,250,54)"/><rect x="243" y="75" width="14" height="14" transform="rotate(0,250,82)"/><rect x="243" y="89" width="14" height="14" transform="rotate(0,250,96)"/><rect x="243" y="103" width="14" height="14" transform="rotate(0,250,110)"/><path d="M 243 117v 14h 7a 7 7, 0, 0, 0, 0 -14" transform="rotate(90,250,124)"/><rect x="243" y="145" width="14" height="14" transform="rotate(0,250,152)"/><circle cx="250" cy="222" r="7" transform="rotate(0,250,222)"/><path d="M 243 257v 14h 7a 7 7, 0, 0, 0, 0 -14" transform="rotate(180,250,264)"/><path d="M 243 285v 14h 7a 7 7, 0, 0, 0, 0 -14" transform="rotate(-90,250,292)"/><rect x="243" y="299" width="14" height="14" transform="rotate(0,250,306)"/><rect x="243" y="313" width="14" height="14" transform="rotate(0,250,320)"/><path d="M 243 327v 14h 14v -7a 7 7, 0, 0, 0, -7 -7" transform="rotate(90,250,334)"/><path d="M 243 369v 14h 14v -7a 7 7, 0, 0, 0, -7 -7" transform="rotate(0,250,376)"/><rect x="243" y="383" width="14" height="14" transform="rotate(0,250,390)"/><rect x="243" y="411" width="14" height="14" transform="rotate(0,250,418)"/><rect x="243" y="425" width="14" height="14" transform="rotate(0,250,432)"/><path d="M 243 439v 14h 14v -7a 7 7, 0, 0, 0, -7 -7" transform="rotate(90,250,446)"/><circle cx="264" cy="40" r="7" transform="rotate(0,264,40)"/><path d="M 257 75v 14h 14v -7a 7 7, 0, 0, 0, -7 -7" transform="rotate(0,264,82)"/><rect x="257" y="89" width="14" height="14" transform="rotate(0,264,96)"/><path d="M 257 131v 14h 14v -7a 7 7, 0, 0, 0, -7 -7" transform="rotate(-90,264,138)"/><path d="M 257 145v 14h 14v -7a 7 7, 0, 0, 0, -7 -7" transform="rotate(90,264,152)"/><path d="M 257 173v 14h 7a 7 7, 0, 0, 0, 0 -14" transform="rotate(180,264,180)"/><path d="M 257 229v 14h 7a 7 7, 0, 0, 0, 0 -14" transform="rotate(-90,264,236)"/><rect x="257" y="243" width="14" height="14" transform="rotate(0,264,250)"/><path d="M 257 257v 14h 14v -7a 7 7, 0, 0, 0, -7 -7" transform="rotate(90,264,264)"/><path d="M 257 299v 14h 7a 7 7, 0, 0, 0, 0 -14" transform="rotate(0,264,306)"/><circle cx="264" cy="348" r="7" transform="rotate(0,264,348)"/><rect x="257" y="383" width="14" height="14" transform="rotate(0,264,390)"/><rect x="257" y="411" width="14" height="14" transform="rotate(0,264,418)"/><path d="M 257 425v 14h 14v -7a 7 7, 0, 0, 0, -7 -7" transform="rotate(90,264,432)"/><path d="M 257 453v 14h 14v -7a 7 7, 0, 0, 0, -7 -7" transform="rotate(-90,264,460)"/><path d="M 257 467v 14h 7a 7 7, 0, 0, 0, 0 -14" transform="rotate(90,264,474)"/><path d="M 271 61v 14h 7a 7 7, 0, 0, 0, 0 -14" transform="rotate(180,278,68)"/><rect x="271" y="89" width="14" height="14" transform="rotate(0,278,96)"/><rect x="271" y="103" width="14" height="14" transform="rotate(0,278,110)"/><rect x="271" y="117" width="14" height="14" transform="rotate(0,278,124)"/><rect x="271" y="131" width="14" height="14" transform="rotate(0,278,138)"/><rect x="271" y="173" width="14" height="14" transform="rotate(0,278,180)"/><circle cx="278" cy="208" r="7" transform="rotate(0,278,208)"/><path d="M 271 243v 14h 7a 7 7, 0, 0, 0, 0 -14" transform="rotate(0,278,250)"/><circle cx="278" cy="278" r="7" transform="rotate(0,278,278)"/><path d="M 271 313v 14h 7a 7 7, 0, 0, 0, 0 -14" transform="rotate(-90,278,320)"/><path d="M 271 327v 14h 14v -7a 7 7, 0, 0, 0, -7 -7" transform="rotate(180,278,334)"/><path d="M 271 369v 14h 14v -7a 7 7, 0, 0, 0, -7 -7" transform="rotate(-90,278,376)"/><rect x="271" y="383" width="14" height="14" transform="rotate(0,278,390)"/><rect x="271" y="397" width="14" height="14" transform="rotate(0,278,404)"/><rect x="271" y="411" width="14" height="14" transform="rotate(0,278,418)"/><path d="M 271 439v 14h 7a 7 7, 0, 0, 0, 0 -14" transform="rotate(-90,278,446)"/><rect x="271" y="453" width="14" height="14" transform="rotate(0,278,460)"/><path d="M 285 33v 14h 7a 7 7, 0, 0, 0, 0 -14" transform="rotate(180,292,40)"/><rect x="285" y="61" width="14" height="14" transform="rotate(0,292,68)"/><rect x="285" y="75" width="14" height="14" transform="rotate(0,292,82)"/><path d="M 285 89v 14h 14v -7a 7 7, 0, 0, 0, -7 -7" transform="rotate(90,292,96)"/><rect x="285" y="131" width="14" height="14" transform="rotate(0,292,138)"/><path d="M 285 145v 14h 7a 7 7, 0, 0, 0, 0 -14" transform="rotate(90,292,152)"/><rect x="285" y="173" width="14" height="14" transform="rotate(0,292,180)"/><path d="M 285 187v 14h 7a 7 7, 0, 0, 0, 0 -14" transform="rotate(90,292,194)"/><path d="M 285 229v 14h 7a 7 7, 0, 0, 0, 0 -14" transform="rotate(180,292,236)"/><path d="M 285 285v 14h 14v -7a 7 7, 0, 0, 0, -7 -7" transform="rotate(-90,292,292)"/><path d="M 285 299v 14h 7a 7 7, 0, 0, 0, 0 -14" transform="rotate(90,292,306)"/><path d="M 285 327v 14h 7a 7 7, 0, 0, 0, 0 -14" transform="rotate(0,292,334)"/><path d="M 285 355v 14h 7a 7 7, 0, 0, 0, 0 -14" transform="rotate(-90,292,362)"/><path d="M 285 369v 14h 14v -7a 7 7, 0, 0, 0, -7 -7" transform="rotate(90,292,376)"/><path d="M 285 411v 14h 7a 7 7, 0, 0, 0, 0 -14" transform="rotate(0,292,418)"/><path d="M 285 453v 14h 7a 7 7, 0, 0, 0, 0 -14" transform="rotate(0,292,460)"/><rect x="299" y="33" width="14" height="14" transform="rotate(0,306,40)"/><rect x="299" y="47" width="14" height="14" transform="rotate(0,306,54)"/><path d="M 299 61v 14h 14v -7a 7 7, 0, 0, 0, -7 -7" transform="rotate(90,306,68)"/><circle cx="306" cy="110" r="7" transform="rotate(0,306,110)"/><rect x="299" y="131" width="14" height="14" transform="rotate(0,306,138)"/><path d="M 299 159v 14h 14v -7a 7 7, 0, 0, 0, -7 -7" transform="rotate(-90,306,166)"/><rect x="299" y="173" width="14" height="14" transform="rotate(0,306,180)"/><path d="M 299 201v 14h 7a 7 7, 0, 0, 0, 0 -14" transform="rotate(180,306,208)"/><rect x="299" y="229" width="14" height="14" transform="rotate(0,306,236)"/><rect x="299" y="243" width="14" height="14" transform="rotate(0,306,250)"/><path d="M 299 257v 14h 14v -7a 7 7, 0, 0, 0, -7 -7" transform="rotate(180,306,264)"/><rect x="299" y="285" width="14" height="14" transform="rotate(0,306,292)"/><path d="M 299 313v 14h 7a 7 7, 0, 0, 0, 0 -14" transform="rotate(180,306,320)"/><path d="M 299 425v 14h 7a 7 7, 0, 0, 0, 0 -14" transform="rotate(-90,306,432)"/><path d="M 299 439v 14h 7a 7 7, 0, 0, 0, 0 -14" transform="rotate(90,306,446)"/><path d="M 299 467v 14h 7a 7 7, 0, 0, 0, 0 -14" transform="rotate(180,306,474)"/><path d="M 313 19v 14h 7a 7 7, 0, 0, 0, 0 -14" transform="rotate(-90,320,26)"/><rect x="313" y="33" width="14" height="14" transform="rotate(0,320,40)"/><rect x="313" y="47" width="14" height="14" transform="rotate(0,320,54)"/><path d="M 313 117v 14h 7a 7 7, 0, 0, 0, 0 -14" transform="rotate(-90,320,124)"/><rect x="313" y="131" width="14" height="14" transform="rotate(0,320,138)"/><rect x="313" y="145" width="14" height="14" transform="rotate(0,320,152)"/><rect x="313" y="159" width="14" height="14" transform="rotate(0,320,166)"/><rect x="313" y="173" width="14" height="14" transform="rotate(0,320,180)"/><rect x="313" y="187" width="14" height="14" transform="rotate(0,320,194)"/><rect x="313" y="201" width="14" height="14" transform="rotate(0,320,208)"/><rect x="313" y="215" width="14" height="14" transform="rotate(0,320,222)"/><rect x="313" y="229" width="14" height="14" transform="rotate(0,320,236)"/><rect x="313" y="243" width="14" height="14" transform="rotate(0,320,250)"/><rect x="313" y="257" width="14" height="14" transform="rotate(0,320,264)"/><path d="M 313 285v 14h 14v -7a 7 7, 0, 0, 0, -7 -7" transform="rotate(0,320,292)"/><rect x="313" y="299" width="14" height="14" transform="rotate(0,320,306)"/><rect x="313" y="313" width="14" height="14" transform="rotate(0,320,320)"/><rect x="313" y="327" width="14" height="14" transform="rotate(0,320,334)"/><path d="M 313 341v 14h 14v -7a 7 7, 0, 0, 0, -7 -7" transform="rotate(180,320,348)"/><path d="M 313 369v 14h 14v -7a 7 7, 0, 0, 0, -7 -7" transform="rotate(-90,320,376)"/><path d="M 313 383v 14h 14v -7a 7 7, 0, 0, 0, -7 -7" transform="rotate(180,320,390)"/><rect x="313" y="467" width="14" height="14" transform="rotate(0,320,474)"/><path d="M 327 47v 14h 7a 7 7, 0, 0, 0, 0 -14" transform="rotate(0,334,54)"/><path d="M 327 89v 14h 7a 7 7, 0, 0, 0, 0 -14" transform="rotate(-90,334,96)"/><path d="M 327 103v 14h 7a 7 7, 0, 0, 0, 0 -14" transform="rotate(90,334,110)"/><path d="M 327 145v 14h 7a 7 7, 0, 0, 0, 0 -14" transform="rotate(0,334,152)"/><path d="M 327 187v 14h 14v -7a 7 7, 0, 0, 0, -7 -7" transform="rotate(0,334,194)"/><rect x="327" y="201" width="14" height="14" transform="rotate(0,334,208)"/><path d="M 327 215v 14h 14v -7a 7 7, 0, 0, 0, -7 -7" transform="rotate(90,334,222)"/><path d="M 327 257v 14h 14v -7a 7 7, 0, 0, 0, -7 -7" transform="rotate(0,334,264)"/><path d="M 327 271v 14h 14v -7a 7 7, 0, 0, 0, -7 -7" transform="rotate(180,334,278)"/><rect x="327" y="327" width="14" height="14" transform="rotate(0,334,334)"/><rect x="327" y="341" width="14" height="14" transform="rotate(0,334,348)"/><rect x="327" y="355" width="14" height="14" transform="rotate(0,334,362)"/><rect x="327" y="369" width="14" height="14" transform="rotate(0,334,376)"/><rect x="327" y="383" width="14" height="14" transform="rotate(0,334,390)"/><path d="M 327 425v 14h 14v -7a 7 7, 0, 0, 0, -7 -7" transform="rotate(-90,334,432)"/><rect x="327" y="439" width="14" height="14" transform="rotate(0,334,446)"/><rect x="327" y="453" width="14" height="14" transform="rotate(0,334,460)"/><path d="M 327 467v 14h 14v -7a 7 7, 0, 0, 0, -7 -7" transform="rotate(90,334,474)"/><circle cx="348" cy="40" r="7" transform="rotate(0,348,40)"/><circle cx="348" cy="124" r="7" transform="rotate(0,348,124)"/><path d="M 341 159v 14h 7a 7 7, 0, 0, 0, 0 -14" transform="rotate(180,348,166)"/><rect x="341" y="201" width="14" height="14" transform="rotate(0,348,208)"/><circle cx="348" cy="250" r="7" transform="rotate(0,348,250)"/><path d="M 341 271v 14h 7a 7 7, 0, 0, 0, 0 -14" transform="rotate(0,348,278)"/><rect x="341" y="327" width="14" height="14" transform="rotate(0,348,334)"/><rect x="341" y="383" width="14" height="14" transform="rotate(0,348,390)"/><path d="M 341 397v 14h 14v -7a 7 7, 0, 0, 0, -7 -7" transform="rotate(180,348,404)"/><path d="M 341 425v 14h 7a 7 7, 0, 0, 0, 0 -14" transform="rotate(0,348,432)"/><rect x="341" y="453" width="14" height="14" transform="rotate(0,348,460)"/><circle cx="362" cy="26" r="7" transform="rotate(0,362,26)"/><circle cx="362" cy="54" r="7" transform="rotate(0,362,54)"/><path d="M 355 75v 14h 7a 7 7, 0, 0, 0, 0 -14" transform="rotate(-90,362,82)"/><rect x="355" y="89" width="14" height="14" transform="rotate(0,362,96)"/><path d="M 355 103v 14h 7a 7 7, 0, 0, 0, 0 -14" transform="rotate(90,362,110)"/><path d="M 355 145v 14h 7a 7 7, 0, 0, 0, 0 -14" transform="rotate(-90,362,152)"/><rect x="355" y="159" width="14" height="14" transform="rotate(0,362,166)"/><path d="M 355 187v 14h 14v -7a 7 7, 0, 0, 0, -7 -7" transform="rotate(-90,362,194)"/><path d="M 355 201v 14h 14v -7a 7 7, 0, 0, 0, -7 -7" transform="rotate(90,362,208)"/><path d="M 355 229v 14h 7a 7 7, 0, 0, 0, 0 -14" transform="rotate(180,362,236)"/><circle cx="362" cy="306" r="7" transform="rotate(0,362,306)"/><path d="M 355 327v 14h 7a 7 7, 0, 0, 0, 0 -14" transform="rotate(0,362,334)"/><path d="M 355 355v 14h 14v -7a 7 7, 0, 0, 0, -7 -7" transform="rotate(-90,362,362)"/><rect x="355" y="369" width="14" height="14" transform="rotate(0,362,376)"/><rect x="355" y="383" width="14" height="14" transform="rotate(0,362,390)"/><rect x="355" y="397" width="14" height="14" transform="rotate(0,362,404)"/><path d="M 355 411v 14h 14v -7a 7 7, 0, 0, 0, -7 -7" transform="rotate(180,362,418)"/><path d="M 355 453v 14h 14v -7a 7 7, 0, 0, 0, -7 -7" transform="rotate(0,362,460)"/><path d="M 355 467v 14h 7a 7 7, 0, 0, 0, 0 -14" transform="rotate(90,362,474)"/><circle cx="376" cy="138" r="7" transform="rotate(0,376,138)"/><path d="M 369 159v 14h 14v -7a 7 7, 0, 0, 0, -7 -7" transform="rotate(0,376,166)"/><rect x="369" y="173" width="14" height="14" transform="rotate(0,376,180)"/><path d="M 369 187v 14h 14v -7a 7 7, 0, 0, 0, -7 -7" transform="rotate(90,376,194)"/><path d="M 369 215v 14h 14v -7a 7 7, 0, 0, 0, -7 -7" transform="rotate(-90,376,222)"/><rect x="369" y="229" width="14" height="14" transform="rotate(0,376,236)"/><path d="M 369 257v 14h 14v -7a 7 7, 0, 0, 0, -7 -7" transform="rotate(-90,376,264)"/><rect x="369" y="271" width="14" height="14" transform="rotate(0,376,278)"/><path d="M 369 285v 14h 14v -7a 7 7, 0, 0, 0, -7 -7" transform="rotate(180,376,292)"/><rect x="369" y="355" width="14" height="14" transform="rotate(0,376,362)"/><rect x="369" y="411" width="14" height="14" transform="rotate(0,376,418)"/><path d="M 369 425v 14h 7a 7 7, 0, 0, 0, 0 -14" transform="rotate(90,376,432)"/><rect x="383" y="173" width="14" height="14" transform="rotate(0,390,180)"/><path d="M 383 201v 14h 14v -7a 7 7, 0, 0, 0, -7 -7" transform="rotate(-90,390,208)"/><rect x="383" y="215" width="14" height="14" transform="rotate(0,390,222)"/><rect x="383" y="229" width="14" height="14" transform="rotate(0,390,236)"/><rect x="383" y="243" width="14" height="14" transform="rotate(0,390,250)"/><path d="M 383 257v 14h 14v -7a 7 7, 0, 0, 0, -7 -7" transform="rotate(90,390,264)"/><rect x="383" y="285" width="14" height="14" transform="rotate(0,390,292)"/><rect x="383" y="299" width="14" height="14" transform="rotate(0,390,306)"/><rect x="383" y="313" width="14" height="14" transform="rotate(0,390,320)"/><rect x="383" y="327" width="14" height="14" transform="rotate(0,390,334)"/><rect x="383" y="341" width="14" height="14" transform="rotate(0,390,348)"/><rect x="383" y="355" width="14" height="14" transform="rotate(0,390,362)"/><circle cx="390" cy="390" r="7" transform="rotate(0,390,390)"/><rect x="383" y="411" width="14" height="14" transform="rotate(0,390,418)"/><circle cx="404" cy="138" r="7" transform="rotate(0,404,138)"/><path d="M 397 159v 14h 7a 7 7, 0, 0, 0, 0 -14" transform="rotate(-90,404,166)"/><rect x="397" y="173" width="14" height="14" transform="rotate(0,404,180)"/><rect x="397" y="187" width="14" height="14" transform="rotate(0,404,194)"/><rect x="397" y="201" width="14" height="14" transform="rotate(0,404,208)"/><rect x="397" y="215" width="14" height="14" transform="rotate(0,404,222)"/><path d="M 397 229v 14h 14v -7a 7 7, 0, 0, 0, -7 -7" transform="rotate(90,404,236)"/><path d="M 397 271v 14h 7a 7 7, 0, 0, 0, 0 -14" transform="rotate(-90,404,278)"/><rect x="397" y="285" width="14" height="14" transform="rotate(0,404,292)"/><rect x="397" y="299" width="14" height="14" transform="rotate(0,404,306)"/><rect x="397" y="313" width="14" height="14" transform="rotate(0,404,320)"/><rect x="397" y="327" width="14" height="14" transform="rotate(0,404,334)"/><rect x="397" y="341" width="14" height="14" transform="rotate(0,404,348)"/><rect x="397" y="355" width="14" height="14" transform="rotate(0,404,362)"/><rect x="397" y="411" width="14" height="14" transform="rotate(0,404,418)"/><rect x="397" y="425" width="14" height="14" transform="rotate(0,404,432)"/><rect x="397" y="439" width="14" height="14" transform="rotate(0,404,446)"/><rect x="397" y="453" width="14" height="14" transform="rotate(0,404,460)"/><path d="M 397 467v 14h 14v -7a 7 7, 0, 0, 0, -7 -7" transform="rotate(180,404,474)"/><path d="M 411 201v 14h 14v -7a 7 7, 0, 0, 0, -7 -7" transform="rotate(0,418,208)"/><rect x="411" y="215" width="14" height="14" transform="rotate(0,418,222)"/><rect x="411" y="299" width="14" height="14" transform="rotate(0,418,306)"/><rect x="411" y="313" width="14" height="14" transform="rotate(0,418,320)"/><rect x="411" y="327" width="14" height="14" transform="rotate(0,418,334)"/><rect x="411" y="341" width="14" height="14" transform="rotate(0,418,348)"/><rect x="411" y="355" width="14" height="14" transform="rotate(0,418,362)"/><rect x="411" y="369" width="14" height="14" transform="rotate(0,418,376)"/><rect x="411" y="383" width="14" height="14" transform="rotate(0,418,390)"/><rect x="411" y="397" width="14" height="14" transform="rotate(0,418,404)"/><path d="M 411 411v 14h 14v -7a 7 7, 0, 0, 0, -7 -7" transform="rotate(90,418,418)"/><path d="M 411 439v 14h 7a 7 7, 0, 0, 0, 0 -14" transform="rotate(0,418,446)"/><rect x="411" y="467" width="14" height="14" transform="rotate(0,418,474)"/><path d="M 425 131v 14h 14v -7a 7 7, 0, 0, 0, -7 -7" transform="rotate(-90,432,138)"/><path d="M 425 145v 14h 7a 7 7, 0, 0, 0, 0 -14" transform="rotate(90,432,152)"/><path d="M 425 173v 14h 7a 7 7, 0, 0, 0, 0 -14" transform="rotate(180,432,180)"/><path d="M 425 215v 14h 14v -7a 7 7, 0, 0, 0, -7 -7" transform="rotate(0,432,222)"/><path d="M 425 229v 14h 14v -7a 7 7, 0, 0, 0, -7 -7" transform="rotate(180,432,236)"/><path d="M 425 257v 14h 7a 7 7, 0, 0, 0, 0 -14" transform="rotate(-90,432,264)"/><path d="M 425 271v 14h 7a 7 7, 0, 0, 0, 0 -14" transform="rotate(90,432,278)"/><rect x="425" y="299" width="14" height="14" transform="rotate(0,432,306)"/><rect x="425" y="341" width="14" height="14" transform="rotate(0,432,348)"/><rect x="425" y="355" width="14" height="14" transform="rotate(0,432,362)"/><rect x="425" y="397" width="14" height="14" transform="rotate(0,432,404)"/><path d="M 425 425v 14h 7a 7 7, 0, 0, 0, 0 -14" transform="rotate(180,432,432)"/><path d="M 425 453v 14h 7a 7 7, 0, 0, 0, 0 -14" transform="rotate(-90,432,460)"/><path d="M 425 467v 14h 14v -7a 7 7, 0, 0, 0, -7 -7" transform="rotate(90,432,474)"/><rect x="439" y="131" width="14" height="14" transform="rotate(0,446,138)"/><rect x="439" y="173" width="14" height="14" transform="rotate(0,446,180)"/><path d="M 439 187v 14h 7a 7 7, 0, 0, 0, 0 -14" transform="rotate(90,446,194)"/><rect x="439" y="229" width="14" height="14" transform="rotate(0,446,236)"/><path d="M 439 243v 14h 7a 7 7, 0, 0, 0, 0 -14" transform="rotate(90,446,250)"/><rect x="439" y="299" width="14" height="14" transform="rotate(0,446,306)"/><path d="M 439 313v 14h 7a 7 7, 0, 0, 0, 0 -14" transform="rotate(90,446,320)"/><rect x="439" y="341" width="14" height="14" transform="rotate(0,446,348)"/><rect x="439" y="355" width="14" height="14" transform="rotate(0,446,362)"/><rect x="439" y="369" width="14" height="14" transform="rotate(0,446,376)"/><rect x="439" y="383" width="14" height="14" transform="rotate(0,446,390)"/><rect x="439" y="397" width="14" height="14" transform="rotate(0,446,404)"/><path d="M 439 425v 14h 14v -7a 7 7, 0, 0, 0, -7 -7" transform="rotate(0,446,432)"/><path d="M 439 439v 14h 7a 7 7, 0, 0, 0, 0 -14" transform="rotate(90,446,446)"/><path d="M 453 131v 14h 14v -7a 7 7, 0, 0, 0, -7 -7" transform="rotate(0,460,138)"/><path d="M 453 145v 14h 14v -7a 7 7, 0, 0, 0, -7 -7" transform="rotate(180,460,152)"/><path d="M 453 173v 14h 7a 7 7, 0, 0, 0, 0 -14" transform="rotate(0,460,180)"/><path d="M 453 201v 14h 7a 7 7, 0, 0, 0, 0 -14" transform="rotate(180,460,208)"/><path d="M 453 229v 14h 7a 7 7, 0, 0, 0, 0 -14" transform="rotate(0,460,236)"/><path d="M 453 285v 14h 14v -7a 7 7, 0, 0, 0, -7 -7" transform="rotate(-90,460,292)"/><path d="M 453 299v 14h 14v -7a 7 7, 0, 0, 0, -7 -7" transform="rotate(90,460,306)"/><path d="M 453 327v 14h 7a 7 7, 0, 0, 0, 0 -14" transform="rotate(-90,460,334)"/><rect x="453" y="341" width="14" height="14" transform="rotate(0,460,348)"/><rect x="453" y="355" width="14" height="14" transform="rotate(0,460,362)"/><rect x="453" y="369" width="14" height="14" transform="rotate(0,460,376)"/><rect x="453" y="383" width="14" height="14" transform="rotate(0,460,390)"/><rect x="453" y="397" width="14" height="14" transform="rotate(0,460,404)"/><path d="M 453 411v 14h 14v -7a 7 7, 0, 0, 0, -7 -7" transform="rotate(180,460,418)"/><circle cx="460" cy="474" r="7" transform="rotate(0,460,474)"/><path d="M 467 145v 14h 7a 7 7, 0, 0, 0, 0 -14" transform="rotate(0,474,152)"/><path d="M 467 187v 14h 7a 7 7, 0, 0, 0, 0 -14" transform="rotate(-90,474,194)"/><path d="M 467 201v 14h 14v -7a 7 7, 0, 0, 0, -7 -7" transform="rotate(90,474,208)"/><circle cx="474" cy="250" r="7" transform="rotate(0,474,250)"/><path d="M 467 285v 14h 7a 7 7, 0, 0, 0, 0 -14" transform="rotate(0,474,292)"/><circle cx="474" cy="320" r="7" transform="rotate(0,474,320)"/><path d="M 467 341v 14h 7a 7 7, 0, 0, 0, 0 -14" transform="rotate(0,474,348)"/><path d="M 467 369v 14h 14v -7a 7 7, 0, 0, 0, -7 -7" transform="rotate(0,474,376)"/><path d="M 467 383v 14h 14v -7a 7 7, 0, 0, 0, -7 -7" transform="rotate(90,474,390)"/><path d="M 467 411v 14h 7a 7 7, 0, 0, 0, 0 -14" transform="rotate(0,474,418)"/><circle cx="474" cy="446" r="7" transform="rotate(0,474,446)"/></clipPath><clipPath id="clip-path-corners-square-color-0-0"><path clip-rule="evenodd" d="M 19 54v 28a 35 35, 0, 0, 0, 35 35h 28a 35 35, 0, 0, 0, 35 -35v -28a 35 35, 0, 0, 0, -35 -35h -28a 35 35, 0, 0, 0, -35 35M 54 33h 28a 21 21, 0, 0, 1, 21 21v 28a 21 21, 0, 0, 1, -21 21h -28a 21 21, 0, 0, 1, -21 -21v -28a 21 21, 0, 0, 1, 21 -21" transform="rotate(0,68,68)"/></clipPath><clipPath id="clip-path-corners-dot-color-0-0"><circle cx="68" cy="68" r="21" transform="rotate(0,68,68)"/></clipPath><clipPath id="clip-path-corners-square-color-1-0"><path clip-rule="evenodd" d="M 383 54v 28a 35 35, 0, 0, 0, 35 35h 28a 35 35, 0, 0, 0, 35 -35v -28a 35 35, 0, 0, 0, -35 -35h -28a 35 35, 0, 0, 0, -35 35M 418 33h 28a 21 21, 0, 0, 1, 21 21v 28a 21 21, 0, 0, 1, -21 21h -28a 21 21, 0, 0, 1, -21 -21v -28a 21 21, 0, 0, 1, 21 -21" transform="rotate(90,432,68)"/></clipPath><clipPath id="clip-path-corners-dot-color-1-0"><circle cx="432" cy="68" r="21" transform="rotate(90,432,68)"/></clipPath><clipPath id="clip-path-corners-square-color-0-1"><path clip-rule="evenodd" d="M 19 418v 28a 35 35, 0, 0, 0, 35 35h 28a 35 35, 0, 0, 0, 35 -35v -28a 35 35, 0, 0, 0, -35 -35h -28a 35 35, 0, 0, 0, -35 35M 54 397h 28a 21 21, 0, 0, 1, 21 21v 28a 21 21, 0, 0, 1, -21 21h -28a 21 21, 0, 0, 1, -21 -21v -28a 21 21, 0, 0, 1, 21 -21" transform="rotate(-90,68,432)"/></clipPath><clipPath id="clip-path-corners-dot-color-0-1"><circle cx="68" cy="432" r="21" transform="rotate(-90,68,432)"/></clipPath></defs><rect x="0" y="0" height="500" width="500" clip-path="url('#clip-path-background-color')" fill="#fff"/><rect x="0" y="0" height="500" width="500" clip-path="url('#clip-path-dot-color')" fill="#636A88"/><rect x="19" y="19" height="98" width="98" clip-path="url('#clip-path-corners-square-color-0-0')" fill="#636A88"/><rect x="47" y="47" height="42" width="42" clip-path="url('#clip-path-corners-dot-color-0-0')" fill="#636A88"/><rect x="383" y="19" height="98" width="98" clip-path="url('#clip-path-corners-square-color-1-0')" fill="#636A88"/><rect x="411" y="47" height="42" width="42" clip-path="url('#clip-path-corners-dot-color-1-0')" fill="#636A88"/><rect x="19" y="383" height="98" width="98" clip-path="url('#clip-path-corners-square-color-0-1')" fill="#636A88"/><rect x="47" y="411" height="42" width="42" clip-path="url('#clip-path-corners-dot-color-0-1')" fill="#636A88"/></svg>