<?xml version="1.0" standalone="no"?>
<svg xmlns="http://www.w3.org/2000/svg" width="500" height="500"><defs><clipPath id="clip-path-dot-color"><path d="M 28 136v 12h 6a 6 6, 0, 0, 0, 0 -12" transform="rotate(180,34,142)"/><path d="M 28 160v 12h 12v -6a 6 6, 0, 0, 0, -6 -6" transform="rotate(-90,34,166)"/><rect x="28" y="172" width="12" height="12" transform="rotate(0,34,178)"/><rect x="28" y="184" width="12" height="12" transform="rotate(0,34,190)"/><rect x="28" y="196" width="12" height="12" transform="rotate(0,34,202)"/><rect x="28" y="208" width="12" height="12" transform="rotate(0,34,214)"/><rect x="28" y="220" width="12" height="12" transform="rotate(0,34,226)"/><rect x="28" y="232" width="12" height="12" transform="rotate(0,34,238)"/><path d="M 28 244v 12h 12v -6a 6 6, 0, 0, 0, -6 -6" transform="rotate(180,34,250)"/><circle cx="34" cy="274" r="6" transform="rotate(0,34,274)"/><path d="M 28 292v 12h 6a 6 6, 0, 0, 0, 0 -12" transform="rotate(180,34,298)"/><path d="M 28 316v 12h 12v -6a 6 6, 0, 0, 0, -6 -6" transform="rotate(-90,34,322)"/><path d="M 28 328v 12h 12v -6a 6 6, 0, 0, 0, -6 -6" transform="rotate(180,34,334)"/><path d="M 28 364v 12h 6a 6 6, 0, 0, 0, 0 -12" transform="rotate(180,34,370)"/><path d="M 40 124v 12h 12v -6a 6 6, 0, 0, 0, -6 -6" transform="rotate(-90,46,130)"/><rect x="40" y="136" width="12" height="12" transform="rotate(0,46,142)"/><rect x="40" y="148" width="12" height="12" transform="rotate(0,46,154)"/><rect x="40" y="160" width="12" height="12" transform="rotate(0,46,166)"/><path d="M 40 172v 12h 12v -6a 6 6, 0, 0, 0, -6 -6" transform="rotate(90,46,178)"/><rect x="40" y="244" width="12" height="12" transform="rotate(0,46,250)"/><path d="M 40 280v 12h 6a 6 6, 0, 0, 0, 0 -12" transform="rotate(-90,46,286)"/><rect x="40" y="292" width="12" height="12" transform="rotate(0,46,298)"/><rect x="40" y="304" width="12" height="12" transform="rotate(0,46,310)"/><rect x="40" y="316" width="12" height="12" transform="rotate(0,46,322)"/><rect x="40" y="328" width="12" height="12" transform="rotate(0,46,334)"/><rect x="40" y="364" width="12" height="12" transform="rotate(0,46,370)"/><path d="M 52 124v 12h 6a 6 6, 0, 0, 0, 0 -12" transform="rotate(0,58,130)"/><path d="M 52 232v 12h 6a 6 6, 0, 0, 0, 0 -12" transform="rotate(-90,58,238)"/><rect x="52" y="244" width="12" height="12" transform="rotate(0,58,250)"/><rect x="52" y="256" width="12" height="12" transform="rotate(0,58,262)"/><path d="M 52 268v 12h 12v -6a 6 6, 0, 0, 0, -6 -6" transform="rotate(180,58,274)"/><rect x="52" y="292" width="12" height="12" transform="rotate(0,58,298)"/><rect x="52" y="328" width="12" height="12" transform="rotate(0,58,334)"/><path d="M 52 352v 12h 12v -6a 6 6, 0, 0, 0, -6 -6" transform="rotate(-90,58,358)"/><path d="M 52 364v 12h 12v -6a 6 6, 0, 0, 0, -6 -6" transform="rotate(90,58,370)"/><path d="M 64 196v 12h 12v -6a 6 6, 0, 0, 0, -6 -6" transform="rotate(-90,70,202)"/><rect x="64" y="208" width="12" height="12" transform="rotate(0,70,214)"/><path d="M 64 220v 12h 6a 6 6, 0, 0, 0, 0 -12" transform="rotate(90,70,226)"/><path d="M 64 244v 12h 12v -6a 6 6, 0, 0, 0, -6 -6" transform="rotate(0,70,250)"/><rect x="64" y="256" width="12" height="12" transform="rotate(0,70,262)"/><rect x="64" y="268" width="12" height="12" transform="rotate(0,70,274)"/><path d="M 64 292v 12h 6a 6 6, 0, 0, 0, 0 -12" transform="rotate(0,70,298)"/><path d="M 64 328v 12h 12v -6a 6 6, 0, 0, 0, -6 -6" transform="rotate(0,70,334)"/><rect x="64" y="340" width="12" height="12" transform="rotate(0,70,346)"/><rect x="64" y="352" width="12" height="12" transform="rotate(0,70,358)"/><path d="M 76 136v 12h 6a 6 6, 0, 0, 0, 0 -12" transform="rotate(180,82,142)"/><path d="M 76 184v 12h 6a 6 6, 0, 0, 0, 0 -12" transform="rotate(-90,82,190)"/><rect x="76" y="196" width="12" height="12" transform="rotate(0,82,202)"/><path d="M 76 208v 12h 12v -6a 6 6, 0, 0, 0, -6 -6" transform="rotate(90,82,214)"/><path d="M 76 268v 12h 12v -6a 6 6, 0, 0, 0, -6 -6" transform="rotate(0,82,274)"/><path d="M 76 280v 12h 12v -6a 6 6, 0, 0, 0, -6 -6" transform="rotate(180,82,286)"/><path d="M 76 316v 12h 6a 6 6, 0, 0, 0, 0 -12" transform="rotate(180,82,322)"/><path d="M 76 340v 12h 12v -6a 6 6, 0, 0, 0, -6 -6" transform="rotate(0,82,346)"/><path d="M 76 352v 12h 12v -6a 6 6, 0, 0, 0, -6 -6" transform="rotate(90,82,358)"/><path d="M 88 136v 12h 12v -6a 6 6, 0, 0, 0, -6 -6" transform="rotate(0,94,142)"/><rect x="88" y="148" width="12" height="12" transform="rotate(0,94,154)"/><rect x="88" y="160" width="12" height="12" transform="rotate(0,94,166)"/><path d="M 88 172v 12h 12v -6a 6 6, 0, 0, 0, -6 -6" transform="rotate(180,94,178)"/><path d="M 88 280v 12h 6a 6 6, 0, 0, 0, 0 -12" transform="rotate(0,94,286)"/><rect x="88" y="316" width="12" height="12" transform="rotate(0,94,322)"/><path d="M 88 328v 12h 6a 6 6, 0, 0, 0, 0 -12" transform="rotate(90,94,334)"/><circle cx="106" cy="130" r="6" transform="rotate(0,106,130)"/><rect x="100" y="148" width="12" height="12" transform="rotate(0,106,154)"/><path d="M 100 172v 12h 6a 6 6, 0, 0, 0, 0 -12" transform="rotate(0,106,178)"/><circle cx="106" cy="202" r="6" transform="rotate(0,106,202)"/><circle cx="106" cy="226" r="6" transform="rotate(0,106,226)"/><path d="M 100 244v 12h 6a 6 6, 0, 0, 0, 0 -12" transform="rotate(180,106,250)"/><path d="M 100 268v 12h 6a 6 6, 0, 0, 0, 0 -12" transform="rotate(180,106,274)"/><circle cx="106" cy="298" r="6" transform="rotate(0,106,298)"/><rect x="100" y="316" width="12" height="12" transform="rotate(0,106,322)"/><circle cx="106" cy="346" r="6" transform="rotate(0,106,346)"/><path d="M 100 364v 12h 6a 6 6, 0, 0, 0, 0 -12" transform="rotate(180,106,370)"/><path d="M 112 136v 12h 12v -6a 6 6, 0, 0, 0, -6 -6" transform="rotate(-90,118,142)"/><rect x="112" y="148" width="12" height="12" transform="rotate(0,118,154)"/><circle cx="118" cy="214" r="6" transform="rotate(0,118,214)"/><path d="M 112 244v 12h 12v -6a 6 6, 0, 0, 0, -6 -6" transform="rotate(0,118,250)"/><rect x="112" y="256" width="12" height="12" transform="rotate(0,118,262)"/><path d="M 112 268v 12h 12v -6a 6 6, 0, 0, 0, -6 -6" transform="rotate(90,118,274)"/><path d="M 112 304v 12h 6a 6 6, 0, 0, 0, 0 -12" transform="rotate(-90,118,310)"/><path d="M 112 316v 12h 12v -6a 6 6, 0, 0, 0, -6 -6" transform="rotate(90,118,322)"/><path d="M 112 352v 12h 12v -6a 6 6, 0, 0, 0, -6 -6" transform="rotate(-90,118,358)"/><rect x="112" y="364" width="12" height="12" transform="rotate(0,118,370)"/><path d="M 124 40v 12h 12v -6a 6 6, 0, 0, 0, -6 -6" transform="rotate(-90,130,46)"/><rect x="124" y="52" width="12" height="12" transform="rotate(0,130,58)"/><path d="M 124 64v 12h 12v -6a 6 6, 0, 0, 0, -6 -6" transform="rotate(180,130,70)"/><path d="M 124 88v 12h 12v -6a 6 6, 0, 0, 0, -6 -6" transform="rotate(-90,130,94)"/><path d="M 124 100v 12h 6a 6 6, 0, 0, 0, 0 -12" transform="rotate(90,130,106)"/><path d="M 124 136v 12h 12v -6a 6 6, 0, 0, 0, -6 -6" transform="rotate(0,130,142)"/><rect x="124" y="148" width="12" height="12" transform="rotate(0,130,154)"/><rect x="124" y="160" width="12" height="12" transform="rotate(0,130,166)"/><path d="M 124 172v 12h 6a 6 6, 0, 0, 0, 0 -12" transform="rotate(90,130,178)"/><circle cx="130" cy="202" r="6" transform="rotate(0,130,202)"/><circle cx="130" cy="238" r="6" transform="rotate(0,130,238)"/><path d="M 124 280v 12h 12v -6a 6 6, 0, 0, 0, -6 -6" transform="rotate(-90,130,286)"/><path d="M 124 292v 12h 6a 6 6, 0, 0, 0, 0 -12" transform="rotate(90,130,298)"/><path d="M 124 328v 12h 6a 6 6, 0, 0, 0, 0 -12" transform="rotate(180,130,334)"/><rect x="124" y="352" width="12" height="12" transform="rotate(0,130,358)"/><rect x="124" y="364" width="12" height="12" transform="rotate(0,130,370)"/><path d="M 124 436v 12h 6a 6 6, 0, 0, 0, 0 -12" transform="rotate(-90,130,442)"/><path d="M 124 448v 12h 6a 6 6, 0, 0, 0, 0 -12" transform="rotate(90,130,454)"/><path d="M 136 28v 12h 6a 6 6, 0, 0, 0, 0 -12" transform="rotate(-90,142,34)"/><path d="M 136 40v 12h 12v -6a 6 6, 0, 0, 0, -6 -6" transform="rotate(90,142,46)"/><rect x="136" y="64" width="12" height="12" transform="rotate(0,142,70)"/><path d="M 136 88v 12h 6a 6 6, 0, 0, 0, 0 -12" transform="rotate(0,142,94)"/><path d="M 136 112v 12h 6a 6 6, 0, 0, 0, 0 -12" transform="rotate(-90,142,118)"/><path d="M 136 124v 12h 6a 6 6, 0, 0, 0, 0 -12" transform="rotate(90,142,130)"/><path d="M 136 148v 12h 6a 6 6, 0, 0, 0, 0 -12" transform="rotate(0,142,154)"/><path d="M 136 184v 12h 6a 6 6, 0, 0, 0, 0 -12" transform="rotate(180,142,190)"/><circle cx="142" cy="214" r="6" transform="rotate(0,142,214)"/><circle cx="142" cy="250" r="6" transform="rotate(0,142,250)"/><path d="M 136 268v 12h 6a 6 6, 0, 0, 0, 0 -12" transform="rotate(-90,142,274)"/><rect x="136" y="280" width="12" height="12" transform="rotate(0,142,286)"/><path d="M 136 304v 12h 6a 6 6, 0, 0, 0, 0 -12" transform="rotate(180,142,310)"/><rect x="136" y="328" width="12" height="12" transform="rotate(0,142,334)"/><rect x="136" y="340" width="12" height="12" transform="rotate(0,142,346)"/><rect x="136" y="352" width="12" height="12" transform="rotate(0,142,358)"/><rect x="136" y="364" width="12" height="12" transform="rotate(0,142,370)"/><rect x="136" y="376" width="12" height="12" transform="rotate(0,142,382)"/><path d="M 136 388v 12h 6a 6 6, 0, 0, 0, 0 -12" transform="rotate(90,142,394)"/><path d="M 148 52v 12h 12v -6a 6 6, 0, 0, 0, -6 -6" transform="rotate(-90,154,58)"/><rect x="148" y="64" width="12" height="12" transform="rotate(0,154,70)"/><path d="M 148 76v 12h 12v -6a 6 6, 0, 0, 0, -6 -6" transform="rotate(180,154,82)"/><circle cx="154" cy="106" r="6" transform="rotate(0,154,106)"/><path d="M 148 160v 12h 6a 6 6, 0, 0, 0, 0 -12" transform="rotate(-90,154,166)"/><rect x="148" y="172" width="12" height="12" transform="rotate(0,154,178)"/><rect x="148" y="184" width="12" height="12" transform="rotate(0,154,190)"/><path d="M 148 196v 12h 6a 6 6, 0, 0, 0, 0 -12" transform="rotate(90,154,202)"/><circle cx="154" cy="238" r="6" transform="rotate(0,154,238)"/><path d="M 148 280v 12h 6a 6 6, 0, 0, 0, 0 -12" transform="rotate(0,154,286)"/><path d="M 148 304v 12h 12v -6a 6 6, 0, 0, 0, -6 -6" transform="rotate(0,154,310)"/><rect x="148" y="316" width="12" height="12" transform="rotate(0,154,322)"/><rect x="148" y="328" width="12" height="12" transform="rotate(0,154,334)"/><rect x="148" y="352" width="12" height="12" transform="rotate(0,154,358)"/><path d="M 148 376v 12h 6a 6 6, 0, 0, 0, 0 -12" transform="rotate(0,154,382)"/><path d="M 148 400v 12h 12v -6a 6 6, 0, 0, 0, -6 -6" transform="rotate(-90,154,406)"/><rect x="148" y="412" width="12" height="12" transform="rotate(0,154,418)"/><path d="M 148 424v 12h 6a 6 6, 0, 0, 0, 0 -12" transform="rotate(90,154,430)"/><path d="M 160 28v 12h 6a 6 6, 0, 0, 0, 0 -12" transform="rotate(180,166,34)"/><path d="M 160 52v 12h 6a 6 6, 0, 0, 0, 0 -12" transform="rotate(0,166,58)"/><path d="M 160 76v 12h 6a 6 6, 0, 0, 0, 0 -12" transform="rotate(0,166,82)"/><path d="M 160 124v 12h 12v -6a 6 6, 0, 0, 0, -6 -6" transform="rotate(-90,166,130)"/><path d="M 160 136v 12h 12v -6a 6 6, 0, 0, 0, -6 -6" transform="rotate(180,166,142)"/><rect x="160" y="184" width="12" height="12" transform="rotate(0,166,190)"/><path d="M 160 208v 12h 6a 6 6, 0, 0, 0, 0 -12" transform="rotate(180,166,214)"/><path d="M 160 268v 12h 6a 6 6, 0, 0, 0, 0 -12" transform="rotate(180,166,274)"/><rect x="160" y="328" width="12" height="12" transform="rotate(0,166,334)"/><rect x="160" y="340" width="12" height="12" transform="rotate(0,166,346)"/><path d="M 160 352v 12h 12v -6a 6 6, 0, 0, 0, -6 -6" transform="rotate(90,166,358)"/><path d="M 160 400v 12h 6a 6 6, 0, 0, 0, 0 -12" transform="rotate(0,166,406)"/><path d="M 160 436v 12h 12v -6a 6 6, 0, 0, 0, -6 -6" transform="rotate(-90,166,442)"/><path d="M 160 448v 12h 12v -6a 6 6, 0, 0, 0, -6 -6" transform="rotate(180,166,454)"/><path d="M 172 28v 12h 12v -6a 6 6, 0, 0, 0, -6 -6" transform="rotate(0,178,34)"/><path d="M 172 40v 12h 12v -6a 6 6, 0, 0, 0, -6 -6" transform="rotate(180,178,46)"/><path d="M 172 64v 12h 6a 6 6, 0, 0, 0, 0 -12" transform="rotate(180,178,70)"/><path d="M 172 88v 12h 12v -6a 6 6, 0, 0, 0, -6 -6" transform="rotate(-90,178,94)"/><path d="M 172 100v 12h 6a 6 6, 0, 0, 0, 0 -12" transform="rotate(90,178,106)"/><rect x="172" y="124" width="12" height="12" transform="rotate(0,178,130)"/><rect x="172" y="136" width="12" height="12" transform="rotate(0,178,142)"/><path d="M 172 148v 12h 12v -6a 6 6, 0, 0, 0, -6 -6" transform="rotate(180,178,154)"/><path d="M 172 172v 12h 6a 6 6, 0, 0, 0, 0 -12" transform="rotate(-90,178,178)"/><path d="M 172 184v 12h 12v -6a 6 6, 0, 0, 0, -6 -6" transform="rotate(90,178,190)"/><path d="M 172 208v 12h 6a 6 6, 0, 0, 0, 0 -12" transform="rotate(0,178,214)"/><circle cx="178" cy="238" r="6" transform="rotate(0,178,238)"/><path d="M 172 268v 12h 6a 6 6, 0, 0, 0, 0 -12" transform="rotate(0,178,274)"/><path d="M 172 292v 12h 12v -6a 6 6, 0, 0, 0, -6 -6" transform="rotate(-90,178,298)"/><rect x="172" y="304" width="12" height="12" transform="rotate(0,178,310)"/><rect x="172" y="316" width="12" height="12" transform="rotate(0,178,322)"/><rect x="172" y="328" width="12" height="12" transform="rotate(0,178,334)"/><path d="M 172 340v 12h 12v -6a 6 6, 0, 0, 0, -6 -6" transform="rotate(90,178,346)"/><path d="M 172 376v 12h 6a 6 6, 0, 0, 0, 0 -12" transform="rotate(-90,178,382)"/><path d="M 172 388v 12h 12v -6a 6 6, 0, 0, 0, -6 -6" transform="rotate(180,178,394)"/><path d="M 172 412v 12h 12v -6a 6 6, 0, 0, 0, -6 -6" transform="rotate(-90,178,418)"/><rect x="172" y="424" width="12" height="12" transform="rotate(0,178,430)"/><rect x="172" y="436" width="12" height="12" transform="rotate(0,178,442)"/><rect x="172" y="448" width="12" height="12" transform="rotate(0,178,454)"/><path d="M 172 460v 12h 12v -6a 6 6, 0, 0, 0, -6 -6" transform="rotate(180,178,466)"/><path d="M 184 40v 12h 6a 6 6, 0, 0, 0, 0 -12" transform="rotate(0,190,46)"/><path d="M 184 64v 12h 12v -6a 6 6, 0, 0, 0, -6 -6" transform="rotate(0,190,70)"/><rect x="184" y="76" width="12" height="12" transform="rotate(0,190,82)"/><path d="M 184 88v 12h 12v -6a 6 6, 0, 0, 0, -6 -6" transform="rotate(90,190,94)"/><rect x="184" y="124" width="12" height="12" transform="rotate(0,190,130)"/><rect x="184" y="136" width="12" height="12" transform="rotate(0,190,142)"/><path d="M 184 148v 12h 12v -6a 6 6, 0, 0, 0, -6 -6" transform="rotate(90,190,154)"/><path d="M 184 220v 12h 6a 6 6, 0, 0, 0, 0 -12" transform="rotate(180,190,226)"/><path d="M 184 256v 12h 6a 6 6, 0, 0, 0, 0 -12" transform="rotate(180,190,262)"/><path d="M 184 280v 12h 12v -6a 6 6, 0, 0, 0, -6 -6" transform="rotate(-90,190,286)"/><path d="M 184 292v 12h 12v -6a 6 6, 0, 0, 0, -6 -6" transform="rotate(90,190,298)"/><path d="M 184 328v 12h 6a 6 6, 0, 0, 0, 0 -12" transform="rotate(0,190,334)"/><path d="M 184 352v 12h 6a 6 6, 0, 0, 0, 0 -12" transform="rotate(-90,190,358)"/><path d="M 184 364v 12h 6a 6 6, 0, 0, 0, 0 -12" transform="rotate(90,190,370)"/><rect x="184" y="388" width="12" height="12" transform="rotate(0,190,394)"/><path d="M 184 412v 12h 6a 6 6, 0, 0, 0, 0 -12" transform="rotate(0,190,418)"/><rect x="184" y="436" width="12" height="12" transform="rotate(0,190,442)"/><rect x="184" y="448" width="12" height="12" transform="rotate(0,190,454)"/><path d="M 184 460v 12h 12v -6a 6 6, 0, 0, 0, -6 -6" transform="rotate(90,190,466)"/><path d="M 196 28v 12h 6a 6 6, 0, 0, 0, 0 -12" transform="rotate(180,202,34)"/><rect x="196" y="76" width="12" height="12" transform="rotate(0,202,82)"/><path d="M 196 100v 12h 6a 6 6, 0, 0, 0, 0 -12" transform="rotate(-90,202,106)"/><rect x="196" y="112" width="12" height="12" transform="rotate(0,202,118)"/><rect x="196" y="124" width="12" height="12" transform="rotate(0,202,130)"/><rect x="196" y="136" width="12" height="12" transform="rotate(0,202,142)"/><path d="M 196 160v 12h 6a 6 6, 0, 0, 0, 0 -12" transform="rotate(-90,202,166)"/><rect x="196" y="172" width="12" height="12" transform="rotate(0,202,178)"/><path d="M 196 184v 12h 6a 6 6, 0, 0, 0, 0 -12" transform="rotate(90,202,190)"/><path d="M 196 220v 12h 6a 6 6, 0, 0, 0, 0 -12" transform="rotate(0,202,226)"/><path d="M 196 244v 12h 6a 6 6, 0, 0, 0, 0 -12" transform="rotate(-90,202,250)"/><rect x="196" y="256" width="12" height="12" transform="rotate(0,202,262)"/><rect x="196" y="268" width="12" height="12" transform="rotate(0,202,274)"/><path d="M 196 280v 12h 12v -6a 6 6, 0, 0, 0, -6 -6" transform="rotate(90,202,286)"/><circle cx="202" cy="322" r="6" transform="rotate(0,202,322)"/><path d="M 196 340v 12h 6a 6 6, 0, 0, 0, 0 -12" transform="rotate(180,202,346)"/><rect x="196" y="388" width="12" height="12" transform="rotate(0,202,394)"/><path d="M 196 436v 12h 12v -6a 6 6, 0, 0, 0, -6 -6" transform="rotate(0,202,442)"/><path d="M 196 448v 12h 12v -6a 6 6, 0, 0, 0, -6 -6" transform="rotate(90,202,454)"/><path d="M 208 28v 12h 6a 6 6, 0, 0, 0, 0 -12" transform="rotate(0,214,34)"/><path d="M 208 64v 12h 12v -6a 6 6, 0, 0, 0, -6 -6" transform="rotate(-90,214,70)"/><rect x="208" y="76" width="12" height="12" transform="rotate(0,214,82)"/><path d="M 208 88v 12h 12v -6a 6 6, 0, 0, 0, -6 -6" transform="rotate(180,214,94)"/><rect x="208" y="124" width="12" height="12" transform="rotate(0,214,130)"/><rect x="208" y="136" width="12" height="12" transform="rotate(0,214,142)"/><path d="M 208 148v 12h 12v -6a 6 6, 0, 0, 0, -6 -6" transform="rotate(180,214,154)"/><path d="M 208 196v 12h 6a 6 6, 0, 0, 0, 0 -12" transform="rotate(180,214,202)"/><circle cx="214" cy="238" r="6" transform="rotate(0,214,238)"/><path d="M 208 304v 12h 6a 6 6, 0, 0, 0, 0 -12" transform="rotate(180,214,310)"/><path d="M 208 340v 12h 12v -6a 6 6, 0, 0, 0, -6 -6" transform="rotate(0,214,346)"/><path d="M 208 352v 12h 6a 6 6, 0, 0, 0, 0 -12" transform="rotate(90,214,358)"/><path d="M 208 376v 12h 6a 6 6, 0, 0, 0, 0 -12" transform="rotate(-90,214,382)"/><rect x="208" y="388" width="12" height="12" transform="rotate(0,214,394)"/><path d="M 208 400v 12h 6a 6 6, 0, 0, 0, 0 -12" transform="rotate(90,214,406)"/><path d="M 220 40v 12h 6a 6 6, 0, 0, 0, 0 -12" transform="rotate(-90,226,46)"/><rect x="220" y="52" width="12" height="12" transform="rotate(0,226,58)"/><rect x="220" y="64" width="12" height="12" transform="rotate(0,226,70)"/><rect x="220" y="76" width="12" height="12" transform="rotate(0,226,82)"/><rect x="220" y="88" width="12" height="12" transform="rotate(0,226,94)"/><rect x="220" y="100" width="12" height="12" transform="rotate(0,226,106)"/><rect x="220" y="112" width="12" height="12" transform="rotate(0,226,118)"/><rect x="220" y="124" width="12" height="12" transform="rotate(0,226,130)"/><rect x="220" y="136" width="12" height="12" transform="rotate(0,226,142)"/><rect x="220" y="148" width="12" height="12" transform="rotate(0,226,154)"/><path d="M 220 160v 12h 12v -6a 6 6, 0, 0, 0, -6 -6" transform="rotate(180,226,166)"/><rect x="220" y="196" width="12" height="12" transform="rotate(0,226,202)"/><path d="M 220 220v 12h 6a 6 6, 0, 0, 0, 0 -12" transform="rotate(180,226,226)"/><path d="M 220 244v 12h 6a 6 6, 0, 0, 0, 0 -12" transform="rotate(180,226,250)"/><path d="M 220 268v 12h 6a 6 6, 0, 0, 0, 0 -12" transform="rotate(180,226,274)"/><path d="M 220 292v 12h 12v -6a 6 6, 0, 0, 0, -6 -6" transform="rotate(-90,226,298)"/><path d="M 220 304v 12h 12v -6a 6 6, 0, 0, 0, -6 -6" transform="rotate(90,226,310)"/><path d="M 220 328v 12h 6a 6 6, 0, 0, 0, 0 -12" transform="rotate(180,226,334)"/><path d="M 220 424v 12h 6a 6 6, 0, 0, 0, 0 -12" transform="rotate(-90,226,430)"/><path d="M 220 436v 12h 6a 6 6, 0, 0, 0, 0 -12" transform="rotate(90,226,442)"/><path d="M 220 460v 12h 6a 6 6, 0, 0, 0, 0 -12" transform="rotate(180,226,466)"/><circle cx="238" cy="34" r="6" transform="rotate(0,238,34)"/><path d="M 232 52v 12h 6a 6 6, 0, 0, 0, 0 -12" transform="rotate(0,238,58)"/><rect x="232" y="88" width="12" height="12" transform="rotate(0,238,94)"/><path d="M 232 112v 12h 6a 6 6, 0, 0, 0, 0 -12" transform="rotate(0,238,118)"/><path d="M 232 136v 12h 12v -6a 6 6, 0, 0, 0, -6 -6" transform="rotate(0,238,142)"/><rect x="232" y="148" width="12" height="12" transform="rotate(0,238,154)"/><path d="M 232 160v 12h 12v -6a 6 6, 0, 0, 0, -6 -6" transform="rotate(90,238,166)"/><path d="M 232 196v 12h 12v -6a 6 6, 0, 0, 0, -6 -6" transform="rotate(0,238,202)"/><rect x="232" y="208" width="12" height="12" transform="rotate(0,238,214)"/><path d="M 232 220v 12h 12v -6a 6 6, 0, 0, 0, -6 -6" transform="rotate(90,238,226)"/><rect x="232" y="244" width="12" height="12" transform="rotate(0,238,250)"/><rect x="232" y="256" width="12" height="12" transform="rotate(0,238,262)"/><rect x="232" y="268" width="12" height="12" transform="rotate(0,238,274)"/><rect x="232" y="280" width="12" height="12" transform="rotate(0,238,286)"/><rect x="232" y="292" width="12" height="12" transform="rotate(0,238,298)"/><path d="M 232 316v 12h 12v -6a 6 6, 0, 0, 0, -6 -6" transform="rotate(-90,238,322)"/><path d="M 232 328v 12h 12v -6a 6 6, 0, 0, 0, -6 -6" transform="rotate(90,238,334)"/><path d="M 232 352v 12h 6a 6 6, 0, 0, 0, 0 -12" transform="rotate(180,238,358)"/><circle cx="238" cy="394" r="6" transform="rotate(0,238,394)"/><rect x="232" y="460" width="12" height="12" transform="rotate(0,238,466)"/><path d="M 244 40v 12h 6a 6 6, 0, 0, 0, 0 -12" transform="rotate(180,250,46)"/><path d="M 244 88v 12h 12v -6a 6 6, 0, 0, 0, -6 -6" transform="rotate(0,250,94)"/><path d="M 244 100v 12h 6a 6 6, 0, 0, 0, 0 -12" transform="rotate(90,250,106)"/><path d="M 244 148v 12h 6a 6 6, 0, 0, 0, 0 -12" transform="rotate(0,250,154)"/><path d="M 244 172v 12h 6a 6 6, 0, 0, 0, 0 -12" transform="rotate(-90,250,178)"/><path d="M 244 184v 12h 12v -6a 6 6, 0, 0, 0, -6 -6" transform="rotate(180,250,190)"/><path d="M 244 208v 12h 6a 6 6, 0, 0, 0, 0 -12" transform="rotate(0,250,214)"/><rect x="244" y="244" width="12" height="12" transform="rotate(0,250,250)"/><path d="M 244 280v 12h 12v -6a 6 6, 0, 0, 0, -6 -6" transform="rotate(0,250,286)"/><rect x="244" y="292" width="12" height="12" transform="rotate(0,250,298)"/><rect x="244" y="304" width="12" height="12" transform="rotate(0,250,310)"/><rect x="244" y="316" width="12" height="12" transform="rotate(0,250,322)"/><path d="M 244 340v 12h 12v -6a 6 6, 0, 0, 0, -6 -6" transform="rotate(-90,250,346)"/><rect x="244" y="352" width="12" height="12" transform="rotate(0,250,358)"/><circle cx="250" cy="382" r="6" transform="rotate(0,250,382)"/><path d="M 244 436v 12h 6a 6 6, 0, 0, 0, 0 -12" transform="rotate(-90,250,442)"/><rect x="244" y="448" width="12" height="12" transform="rotate(0,250,454)"/><rect x="244" y="460" width="12" height="12" transform="rotate(0,250,466)"/><rect x="256" y="40" width="12" height="12" transform="rotate(0,262,46)"/><path d="M 256 124v 12h 12v -6a 6 6, 0, 0, 0, -6 -6" transform="rotate(-90,262,130)"/><path d="M 256 136v 12h 12v -6a 6 6, 0, 0, 0, -6 -6" transform="rotate(180,262,142)"/><rect x="256" y="184" width="12" height="12" transform="rotate(0,262,190)"/><path d="M 256 196v 12h 6a 6 6, 0, 0, 0, 0 -12" transform="rotate(90,262,202)"/><path d="M 256 220v 12h 6a 6 6, 0, 0, 0, 0 -12" transform="rotate(180,262,226)"/><path d="M 256 244v 12h 6a 6 6, 0, 0, 0, 0 -12" transform="rotate(0,262,250)"/><path d="M 256 316v 12h 6a 6 6, 0, 0, 0, 0 -12" transform="rotate(0,262,322)"/><rect x="256" y="340" width="12" height="12" transform="rotate(0,262,346)"/><rect x="256" y="352" width="12" height="12" transform="rotate(0,262,358)"/><path d="M 256 364v 12h 12v -6a 6 6, 0, 0, 0, -6 -6" transform="rotate(180,262,370)"/><path d="M 256 400v 12h 6a 6 6, 0, 0, 0, 0 -12" transform="rotate(-90,262,406)"/><rect x="256" y="412" width="12" height="12" transform="rotate(0,262,418)"/><path d="M 256 424v 12h 6a 6 6, 0, 0, 0, 0 -12" transform="rotate(90,262,430)"/><rect x="256" y="460" width="12" height="12" transform="rotate(0,262,466)"/><rect x="268" y="40" width="12" height="12" transform="rotate(0,274,46)"/><path d="M 268 76v 12h 12v -6a 6 6, 0, 0, 0, -6 -6" transform="rotate(-90,274,82)"/><rect x="268" y="88" width="12" height="12" transform="rotate(0,274,94)"/><path d="M 268 100v 12h 6a 6 6, 0, 0, 0, 0 -12" transform="rotate(90,274,106)"/><path d="M 268 124v 12h 12v -6a 6 6, 0, 0, 0, -6 -6" transform="rotate(0,274,130)"/><rect x="268" y="136" width="12" height="12" transform="rotate(0,274,142)"/><path d="M 268 160v 12h 12v -6a 6 6, 0, 0, 0, -6 -6" transform="rotate(-90,274,166)"/><rect x="268" y="172" width="12" height="12" transform="rotate(0,274,178)"/><path d="M 268 184v 12h 12v -6a 6 6, 0, 0, 0, -6 -6" transform="rotate(90,274,190)"/><path d="M 268 220v 12h 6a 6 6, 0, 0, 0, 0 -12" transform="rotate(0,274,226)"/><path d="M 268 256v 12h 12v -6a 6 6, 0, 0, 0, -6 -6" transform="rotate(-90,274,262)"/><rect x="268" y="268" width="12" height="12" transform="rotate(0,274,274)"/><path d="M 268 280v 12h 6a 6 6, 0, 0, 0, 0 -12" transform="rotate(90,274,286)"/><path d="M 268 304v 12h 6a 6 6, 0, 0, 0, 0 -12" transform="rotate(180,274,310)"/><rect x="268" y="340" width="12" height="12" transform="rotate(0,274,346)"/><rect x="268" y="352" width="12" height="12" transform="rotate(0,274,358)"/><rect x="268" y="364" width="12" height="12" transform="rotate(0,274,370)"/><path d="M 268 376v 12h 12v -6a 6 6, 0, 0, 0, -6 -6" transform="rotate(180,274,382)"/><path d="M 268 412v 12h 6a 6 6, 0, 0, 0, 0 -12" transform="rotate(0,274,418)"/><path d="M 268 448v 12h 6a 6 6, 0, 0, 0, 0 -12" transform="rotate(-90,274,454)"/><path d="M 268 460v 12h 12v -6a 6 6, 0, 0, 0, -6 -6" transform="rotate(90,274,466)"/><path d="M 280 28v 12h 6a 6 6, 0, 0, 0, 0 -12" transform="rotate(-90,286,34)"/><rect x="280" y="40" width="12" height="12" transform="rotate(0,286,46)"/><path d="M 280 64v 12h 6a 6 6, 0, 0, 0, 0 -12" transform="rotate(-90,286,70)"/><path d="M 280 76v 12h 12v -6a 6 6, 0, 0, 0, -6 -6" transform="rotate(90,286,82)"/><rect x="280" y="136" width="12" height="12" transform="rotate(0,286,142)"/><rect x="280" y="148" width="12" height="12" transform="rotate(0,286,154)"/><rect x="280" y="160" width="12" height="12" transform="rotate(0,286,166)"/><path d="M 280 172v 12h 12v -6a 6 6, 0, 0, 0, -6 -6" transform="rotate(90,286,178)"/><path d="M 280 196v 12h 12v -6a 6 6, 0, 0, 0, -6 -6" transform="rotate(-90,286,202)"/><path d="M 280 208v 12h 6a 6 6, 0, 0, 0, 0 -12" transform="rotate(90,286,214)"/><path d="M 280 244v 12h 12v -6a 6 6, 0, 0, 0, -6 -6" transform="rotate(-90,286,250)"/><rect x="280" y="256" width="12" height="12" transform="rotate(0,286,262)"/><rect x="280" y="268" width="12" height="12" transform="rotate(0,286,274)"/><rect x="280" y="304" width="12" height="12" transform="rotate(0,286,310)"/><path d="M 280 328v 12h 12v -6a 6 6, 0, 0, 0, -6 -6" transform="rotate(-90,286,334)"/><path d="M 280 340v 12h 12v -6a 6 6, 0, 0, 0, -6 -6" transform="rotate(90,286,346)"/><path d="M 280 376v 12h 6a 6 6, 0, 0, 0, 0 -12" transform="rotate(0,286,382)"/><circle cx="286" cy="406" r="6" transform="rotate(0,286,406)"/><circle cx="286" cy="442" r="6" transform="rotate(0,286,442)"/><path d="M 292 40v 12h 12v -6a 6 6, 0, 0, 0, -6 -6" transform="rotate(0,298,46)"/><path d="M 292 52v 12h 12v -6a 6 6, 0, 0, 0, -6 -6" transform="rotate(180,298,58)"/><path d="M 292 100v 12h 6a 6 6, 0, 0, 0, 0 -12" transform="rotate(-90,298,106)"/><rect x="292" y="112" width="12" height="12" transform="rotate(0,298,118)"/><rect x="292" y="124" width="12" height="12" transform="rotate(0,298,130)"/><rect x="292" y="136" width="12" height="12" transform="rotate(0,298,142)"/><rect x="292" y="148" width="12" height="12" transform="rotate(0,298,154)"/><path d="M 292 160v 12h 12v -6a 6 6, 0, 0, 0, -6 -6" transform="rotate(90,298,166)"/><rect x="292" y="196" width="12" height="12" transform="rotate(0,298,202)"/><path d="M 292 220v 12h 6a 6 6, 0, 0, 0, 0 -12" transform="rotate(-90,298,226)"/><rect x="292" y="232" width="12" height="12" transform="rotate(0,298,238)"/><rect x="292" y="244" width="12" height="12" transform="rotate(0,298,250)"/><rect x="292" y="256" width="12" height="12" transform="rotate(0,298,262)"/><rect x="292" y="268" width="12" height="12" transform="rotate(0,298,274)"/><rect x="292" y="280" width="12" height="12" transform="rotate(0,298,286)"/><rect x="292" y="292" width="12" height="12" transform="rotate(0,298,298)"/><rect x="292" y="304" width="12" height="12" transform="rotate(0,298,310)"/><rect x="292" y="316" width="12" height="12" transform="rotate(0,298,322)"/><path d="M 292 328v 12h 12v -6a 6 6, 0, 0, 0, -6 -6" transform="rotate(90,298,334)"/><path d="M 292 388v 12h 6a 6 6, 0, 0, 0, 0 -12" transform="rotate(180,298,394)"/><circle cx="298" cy="418" r="6" transform="rotate(0,298,418)"/><circle cx="310" cy="34" r="6" transform="rotate(0,310,34)"/><rect x="304" y="52" width="12" height="12" transform="rotate(0,310,58)"/><path d="M 304 184v 12h 12v -6a 6 6, 0, 0, 0, -6 -6" transform="rotate(-90,310,190)"/><rect x="304" y="196" width="12" height="12" transform="rotate(0,310,202)"/><path d="M 304 208v 12h 12v -6a 6 6, 0, 0, 0, -6 -6" transform="rotate(180,310,214)"/><path d="M 304 244v 12h 6a 6 6, 0, 0, 0, 0 -12" transform="rotate(0,310,250)"/><path d="M 304 352v 12h 6a 6 6, 0, 0, 0, 0 -12" transform="rotate(-90,310,358)"/><path d="M 304 364v 12h 12v -6a 6 6, 0, 0, 0, -6 -6" transform="rotate(180,310,370)"/><path d="M 304 388v 12h 6a 6 6, 0, 0, 0, 0 -12" transform="rotate(0,310,394)"/><path d="M 304 424v 12h 12v -6a 6 6, 0, 0, 0, -6 -6" transform="rotate(-90,310,430)"/><path d="M 304 436v 12h 12v -6a 6 6, 0, 0, 0, -6 -6" transform="rotate(180,310,442)"/><path d="M 316 40v 12h 6a 6 6, 0, 0, 0, 0 -12" transform="rotate(-90,322,46)"/><rect x="316" y="52" width="12" height="12" transform="rotate(0,322,58)"/><path d="M 316 100v 12h 6a 6 6, 0, 0, 0, 0 -12" transform="rotate(-90,322,106)"/><path d="M 316 112v 12h 6a 6 6, 0, 0, 0, 0 -12" transform="rotate(90,322,118)"/><circle cx="322" cy="166" r="6" transform="rotate(0,322,166)"/><path d="M 316 184v 12h 6a 6 6, 0, 0, 0, 0 -12" transform="rotate(0,322,190)"/><path d="M 316 208v 12h 6a 6 6, 0, 0, 0, 0 -12" transform="rotate(0,322,214)"/><path d="M 316 256v 12h 6a 6 6, 0, 0, 0, 0 -12" transform="rotate(180,322,262)"/><path d="M 316 292v 12h 6a 6 6, 0, 0, 0, 0 -12" transform="rotate(-90,322,298)"/><rect x="316" y="304" width="12" height="12" transform="rotate(0,322,310)"/><path d="M 316 316v 12h 12v -6a 6 6, 0, 0, 0, -6 -6" transform="rotate(180,322,322)"/><path d="M 316 340v 12h 6a 6 6, 0, 0, 0, 0 -12" transform="rotate(180,322,346)"/><path d="M 316 364v 12h 12v -6a 6 6, 0, 0, 0, -6 -6" transform="rotate(0,322,370)"/><path d="M 316 376v 12h 12v -6a 6 6, 0, 0, 0, -6 -6" transform="rotate(180,322,382)"/><rect x="316" y="424" width="12" height="12" transform="rotate(0,322,430)"/><rect x="316" y="436" width="12" height="12" transform="rotate(0,322,442)"/><path d="M 328 52v 12h 6a 6 6, 0, 0, 0, 0 -12" transform="rotate(0,334,58)"/><circle cx="334" cy="94" r="6" transform="rotate(0,334,94)"/><circle cx="334" cy="130" r="6" transform="rotate(0,334,130)"/><circle cx="334" cy="154" r="6" transform="rotate(0,334,154)"/><path d="M 328 256v 12h 12v -6a 6 6, 0, 0, 0, -6 -6" transform="rotate(0,334,262)"/><path d="M 328 268v 12h 6a 6 6, 0, 0, 0, 0 -12" transform="rotate(90,334,274)"/><rect x="328" y="316" width="12" height="12" transform="rotate(0,334,322)"/><rect x="328" y="340" width="12" height="12" transform="rotate(0,334,346)"/><path d="M 328 376v 12h 6a 6 6, 0, 0, 0, 0 -12" transform="rotate(0,334,382)"/><path d="M 328 400v 12h 6a 6 6, 0, 0, 0, 0 -12" transform="rotate(180,334,406)"/><rect x="328" y="424" width="12" height="12" transform="rotate(0,334,430)"/><rect x="328" y="436" width="12" height="12" transform="rotate(0,334,442)"/><rect x="328" y="448" width="12" height="12" transform="rotate(0,334,454)"/><path d="M 328 460v 12h 6a 6 6, 0, 0, 0, 0 -12" transform="rotate(90,334,466)"/><circle cx="346" cy="46" r="6" transform="rotate(0,346,46)"/><circle cx="346" cy="106" r="6" transform="rotate(0,346,106)"/><path d="M 340 160v 12h 6a 6 6, 0, 0, 0, 0 -12" transform="rotate(180,346,166)"/><path d="M 340 184v 12h 6a 6 6, 0, 0, 0, 0 -12" transform="rotate(180,346,190)"/><path d="M 340 208v 12h 6a 6 6, 0, 0, 0, 0 -12" transform="rotate(180,346,214)"/><path d="M 340 232v 12h 12v -6a 6 6, 0, 0, 0, -6 -6" transform="rotate(-90,346,238)"/><path d="M 340 244v 12h 12v -6a 6 6, 0, 0, 0, -6 -6" transform="rotate(180,346,250)"/><path d="M 340 280v 12h 12v -6a 6 6, 0, 0, 0, -6 -6" transform="rotate(-90,346,286)"/><path d="M 340 292v 12h 12v -6a 6 6, 0, 0, 0, -6 -6" transform="rotate(180,346,298)"/><path d="M 340 316v 12h 6a 6 6, 0, 0, 0, 0 -12" transform="rotate(0,346,322)"/><rect x="340" y="340" width="12" height="12" transform="rotate(0,346,346)"/><rect x="340" y="400" width="12" height="12" transform="rotate(0,346,406)"/><rect x="340" y="412" width="12" height="12" transform="rotate(0,346,418)"/><rect x="340" y="424" width="12" height="12" transform="rotate(0,346,430)"/><path d="M 340 448v 12h 6a 6 6, 0, 0, 0, 0 -12" transform="rotate(0,346,454)"/><circle cx="358" cy="34" r="6" transform="rotate(0,358,34)"/><path d="M 352 64v 12h 12v -6a 6 6, 0, 0, 0, -6 -6" transform="rotate(-90,358,70)"/><rect x="352" y="76" width="12" height="12" transform="rotate(0,358,82)"/><path d="M 352 88v 12h 12v -6a 6 6, 0, 0, 0, -6 -6" transform="rotate(180,358,94)"/><path d="M 352 112v 12h 6a 6 6, 0, 0, 0, 0 -12" transform="rotate(-90,358,118)"/><path d="M 352 124v 12h 6a 6 6, 0, 0, 0, 0 -12" transform="rotate(90,358,130)"/><path d="M 352 148v 12h 6a 6 6, 0, 0, 0, 0 -12" transform="rotate(-90,358,154)"/><rect x="352" y="160" width="12" height="12" transform="rotate(0,358,166)"/><rect x="352" y="172" width="12" height="12" transform="rotate(0,358,178)"/><rect x="352" y="184" width="12" height="12" transform="rotate(0,358,190)"/><rect x="352" y="196" width="12" height="12" transform="rotate(0,358,202)"/><path d="M 352 208v 12h 12v -6a 6 6, 0, 0, 0, -6 -6" transform="rotate(90,358,214)"/><rect x="352" y="232" width="12" height="12" transform="rotate(0,358,238)"/><path d="M 352 244v 12h 12v -6a 6 6, 0, 0, 0, -6 -6" transform="rotate(90,358,250)"/><path d="M 352 268v 12h 6a 6 6, 0, 0, 0, 0 -12" transform="rotate(-90,358,274)"/><rect x="352" y="280" width="12" height="12" transform="rotate(0,358,286)"/><rect x="352" y="292" width="12" height="12" transform="rotate(0,358,298)"/><path d="M 352 304v 12h 6a 6 6, 0, 0, 0, 0 -12" transform="rotate(90,358,310)"/><path d="M 352 340v 12h 12v -6a 6 6, 0, 0, 0, -6 -6" transform="rotate(0,358,346)"/><path d="M 352 352v 12h 6a 6 6, 0, 0, 0, 0 -12" transform="rotate(90,358,358)"/><path d="M 352 376v 12h 6a 6 6, 0, 0, 0, 0 -12" transform="rotate(180,358,382)"/><rect x="352" y="400" width="12" height="12" transform="rotate(0,358,406)"/><rect x="352" y="412" width="12" height="12" transform="rotate(0,358,418)"/><path d="M 352 424v 12h 12v -6a 6 6, 0, 0, 0, -6 -6" transform="rotate(90,358,430)"/><path d="M 364 52v 12h 6a 6 6, 0, 0, 0, 0 -12" transform="rotate(-90,370,58)"/><path d="M 364 64v 12h 12v -6a 6 6, 0, 0, 0, -6 -6" transform="rotate(90,370,70)"/><path d="M 364 88v 12h 12v -6a 6 6, 0, 0, 0, -6 -6" transform="rotate(0,370,94)"/><path d="M 364 100v 12h 6a 6 6, 0, 0, 0, 0 -12" transform="rotate(90,370,106)"/><rect x="364" y="184" width="12" height="12" transform="rotate(0,370,190)"/><path d="M 364 196v 12h 12v -6a 6 6, 0, 0, 0, -6 -6" transform="rotate(90,370,202)"/><path d="M 364 220v 12h 6a 6 6, 0, 0, 0, 0 -12" transform="rotate(-90,370,226)"/><path d="M 364 232v 12h 12v -6a 6 6, 0, 0, 0, -6 -6" transform="rotate(90,370,238)"/><circle cx="370" cy="262" r="6" transform="rotate(0,370,262)"/><path d="M 364 280v 12h 12v -6a 6 6, 0, 0, 0, -6 -6" transform="rotate(0,370,286)"/><rect x="364" y="292" width="12" height="12" transform="rotate(0,370,298)"/><path d="M 364 316v 12h 12v -6a 6 6, 0, 0, 0, -6 -6" transform="rotate(-90,370,322)"/><path d="M 364 328v 12h 6a 6 6, 0, 0, 0, 0 -12" transform="rotate(90,370,334)"/><path d="M 364 364v 12h 12v -6a 6 6, 0, 0, 0, -6 -6" transform="rotate(-90,370,370)"/><rect x="364" y="376" width="12" height="12" transform="rotate(0,370,382)"/><rect x="364" y="388" width="12" height="12" transform="rotate(0,370,394)"/><rect x="364" y="400" width="12" height="12" transform="rotate(0,370,406)"/><rect x="364" y="412" width="12" height="12" transform="rotate(0,370,418)"/><path d="M 364 448v 12h 6a 6 6, 0, 0, 0, 0 -12" transform="rotate(-90,370,454)"/><path d="M 364 460v 12h 12v -6a 6 6, 0, 0, 0, -6 -6" transform="rotate(180,370,466)"/><path d="M 376 124v 12h 6a 6 6, 0, 0, 0, 0 -12" transform="rotate(-90,382,130)"/><path d="M 376 136v 12h 12v -6a 6 6, 0, 0, 0, -6 -6" transform="rotate(180,382,142)"/><rect x="376" y="184" width="12" height="12" transform="rotate(0,382,190)"/><circle cx="382" cy="214" r="6" transform="rotate(0,382,214)"/><path d="M 376 292v 12h 12v -6a 6 6, 0, 0, 0, -6 -6" transform="rotate(0,382,298)"/><rect x="376" y="304" width="12" height="12" transform="rotate(0,382,310)"/><path d="M 376 316v 12h 12v -6a 6 6, 0, 0, 0, -6 -6" transform="rotate(90,382,322)"/><path d="M 376 340v 12h 6a 6 6, 0, 0, 0, 0 -12" transform="rotate(180,382,346)"/><rect x="376" y="364" width="12" height="12" transform="rotate(0,382,370)"/><rect x="376" y="412" width="12" height="12" transform="rotate(0,382,418)"/><rect x="376" y="424" width="12" height="12" transform="rotate(0,382,430)"/><path d="M 376 436v 12h 6a 6 6, 0, 0, 0, 0 -12" transform="rotate(90,382,442)"/><rect x="376" y="460" width="12" height="12" transform="rotate(0,382,466)"/><path d="M 388 136v 12h 6a 6 6, 0, 0, 0, 0 -12" transform="rotate(0,394,142)"/><circle cx="394" cy="166" r="6" transform="rotate(0,394,166)"/><path d="M 388 184v 12h 12v -6a 6 6, 0, 0, 0, -6 -6" transform="rotate(0,394,190)"/><path d="M 388 196v 12h 6a 6 6, 0, 0, 0, 0 -12" transform="rotate(90,394,202)"/><path d="M 388 232v 12h 6a 6 6, 0, 0, 0, 0 -12" transform="rotate(-90,394,238)"/><rect x="388" y="244" width="12" height="12" transform="rotate(0,394,250)"/><path d="M 388 256v 12h 6a 6 6, 0, 0, 0, 0 -12" transform="rotate(90,394,262)"/><circle cx="394" cy="286" r="6" transform="rotate(0,394,286)"/><path d="M 388 340v 12h 6a 6 6, 0, 0, 0, 0 -12" transform="rotate(0,394,346)"/><rect x="388" y="364" width="12" height="12" transform="rotate(0,394,370)"/><circle cx="394" cy="394" r="6" transform="rotate(0,394,394)"/><rect x="388" y="412" width="12" height="12" transform="rotate(0,394,418)"/><rect x="388" y="424" width="12" height="12" transform="rotate(0,394,430)"/><path d="M 388 448v 12h 6a 6 6, 0, 0, 0, 0 -12" transform="rotate(-90,394,454)"/><path d="M 388 460v 12h 12v -6a 6 6, 0, 0, 0, -6 -6" transform="rotate(90,394,466)"/><circle cx="406" cy="130" r="6" transform="rotate(0,406,130)"/><path d="M 400 208v 12h 12v -6a 6 6, 0, 0, 0, -6 -6" transform="rotate(-90,406,214)"/><path d="M 400 220v 12h 12v -6a 6 6, 0, 0, 0, -6 -6" transform="rotate(180,406,226)"/><rect x="400" y="244" width="12" height="12" transform="rotate(0,406,250)"/><circle cx="406" cy="274" r="6" transform="rotate(0,406,274)"/><path d="M 400 292v 12h 6a 6 6, 0, 0, 0, 0 -12" transform="rotate(180,406,298)"/><path d="M 400 316v 12h 6a 6 6, 0, 0, 0, 0 -12" transform="rotate(180,406,322)"/><path d="M 400 352v 12h 6a 6 6, 0, 0, 0, 0 -12" transform="rotate(-90,406,358)"/><rect x="400" y="364" width="12" height="12" transform="rotate(0,406,370)"/><rect x="400" y="412" width="12" height="12" transform="rotate(0,406,418)"/><rect x="400" y="424" width="12" height="12" transform="rotate(0,406,430)"/><path d="M 412 136v 12h 12v -6a 6 6, 0, 0, 0, -6 -6" transform="rotate(-90,418,142)"/><path d="M 412 148v 12h 12v -6a 6 6, 0, 0, 0, -6 -6" transform="rotate(180,418,154)"/><circle cx="418" cy="178" r="6" transform="rotate(0,418,178)"/><rect x="412" y="208" width="12" height="12" transform="rotate(0,418,214)"/><rect x="412" y="220" width="12" height="12" transform="rotate(0,418,226)"/><rect x="412" y="232" width="12" height="12" transform="rotate(0,418,238)"/><rect x="412" y="244" width="12" height="12" transform="rotate(0,418,250)"/><path d="M 412 256v 12h 6a 6 6, 0, 0, 0, 0 -12" transform="rotate(90,418,262)"/><rect x="412" y="292" width="12" height="12" transform="rotate(0,418,298)"/><rect x="412" y="316" width="12" height="12" transform="rotate(0,418,322)"/><rect x="412" y="364" width="12" height="12" transform="rotate(0,418,370)"/><rect x="412" y="376" width="12" height="12" transform="rotate(0,418,382)"/><rect x="412" y="388" width="12" height="12" transform="rotate(0,418,394)"/><rect x="412" y="400" width="12" height="12" transform="rotate(0,418,406)"/><rect x="412" y="412" width="12" height="12" transform="rotate(0,418,418)"/><path d="M 412 424v 12h 12v -6a 6 6, 0, 0, 0, -6 -6" transform="rotate(90,418,430)"/><circle cx="418" cy="466" r="6" transform="rotate(0,418,466)"/><path d="M 424 124v 12h 12v -6a 6 6, 0, 0, 0, -6 -6" transform="rotate(-90,430,130)"/><rect x="424" y="136" width="12" height="12" transform="rotate(0,430,142)"/><rect x="424" y="148" width="12" height="12" transform="rotate(0,430,154)"/><circle cx="430" cy="190" r="6" transform="rotate(0,430,190)"/><path d="M 424 208v 12h 6a 6 6, 0, 0, 0, 0 -12" transform="rotate(0,430,214)"/><path d="M 424 232v 12h 12v -6a 6 6, 0, 0, 0, -6 -6" transform="rotate(0,430,238)"/><rect x="424" y="244" width="12" height="12" transform="rotate(0,430,250)"/><path d="M 424 268v 12h 12v -6a 6 6, 0, 0, 0, -6 -6" transform="rotate(-90,430,274)"/><rect x="424" y="280" width="12" height="12" transform="rotate(0,430,286)"/><path d="M 424 292v 12h 12v -6a 6 6, 0, 0, 0, -6 -6" transform="rotate(90,430,298)"/><rect x="424" y="316" width="12" height="12" transform="rotate(0,430,322)"/><path d="M 424 352v 12h 12v -6a 6 6, 0, 0, 0, -6 -6" transform="rotate(-90,430,358)"/><path d="M 424 364v 12h 12v -6a 6 6, 0, 0, 0, -6 -6" transform="rotate(90,430,370)"/><rect x="424" y="388" width="12" height="12" transform="rotate(0,430,394)"/><rect x="424" y="412" width="12" height="12" transform="rotate(0,430,418)"/><rect x="436" y="124" width="12" height="12" transform="rotate(0,442,130)"/><path d="M 436 148v 12h 12v -6a 6 6, 0, 0, 0, -6 -6" transform="rotate(0,442,154)"/><rect x="436" y="160" width="12" height="12" transform="rotate(0,442,166)"/><path d="M 436 172v 12h 12v -6a 6 6, 0, 0, 0, -6 -6" transform="rotate(180,442,178)"/><path d="M 436 244v 12h 12v -6a 6 6, 0, 0, 0, -6 -6" transform="rotate(0,442,250)"/><rect x="436" y="256" width="12" height="12" transform="rotate(0,442,262)"/><rect x="436" y="268" width="12" height="12" transform="rotate(0,442,274)"/><path d="M 436 280v 12h 12v -6a 6 6, 0, 0, 0, -6 -6" transform="rotate(90,442,286)"/><path d="M 436 304v 12h 6a 6 6, 0, 0, 0, 0 -12" transform="rotate(-90,442,310)"/><rect x="436" y="316" width="12" height="12" transform="rotate(0,442,322)"/><rect x="436" y="328" width="12" height="12" transform="rotate(0,442,334)"/><rect x="436" y="340" width="12" height="12" transform="rotate(0,442,346)"/><path d="M 436 352v 12h 12v -6a 6 6, 0, 0, 0, -6 -6" transform="rotate(90,442,358)"/><rect x="436" y="388" width="12" height="12" transform="rotate(0,442,394)"/><rect x="436" y="400" width="12" height="12" transform="rotate(0,442,406)"/><rect x="436" y="412" width="12" height="12" transform="rotate(0,442,418)"/><path d="M 436 424v 12h 12v -6a 6 6, 0, 0, 0, -6 -6" transform="rotate(180,442,430)"/><circle cx="442" cy="454" r="6" transform="rotate(0,442,454)"/><path d="M 448 124v 12h 6a 6 6, 0, 0, 0, 0 -12" transform="rotate(0,454,130)"/><path d="M 448 172v 12h 6a 6 6, 0, 0, 0, 0 -12" transform="rotate(0,454,178)"/><path d="M 448 268v 12h 6a 6 6, 0, 0, 0, 0 -12" transform="rotate(0,454,274)"/><rect x="448" y="328" width="12" height="12" transform="rotate(0,454,334)"/><path d="M 448 376v 12h 6a 6 6, 0, 0, 0, 0 -12" transform="rotate(-90,454,382)"/><rect x="448" y="388" width="12" height="12" transform="rotate(0,454,394)"/><rect x="448" y="400" width="12" height="12" transform="rotate(0,454,406)"/><rect x="448" y="424" width="12" height="12" transform="rotate(0,454,430)"/><path d="M 448 436v 12h 12v -6a 6 6, 0, 0, 0, -6 -6" transform="rotate(180,454,442)"/><path d="M 460 148v 12h 6a 6 6, 0, 0, 0, 0 -12" transform="rotate(-90,466,154)"/><path d="M 460 160v 12h 6a 6 6, 0, 0, 0, 0 -12" transform="rotate(90,466,166)"/><circle cx="466" cy="202" r="6" transform="rotate(0,466,202)"/><circle cx="466" cy="262" r="6" transform="rotate(0,466,262)"/><circle cx="466" cy="298" r="6" transform="rotate(0,466,298)"/><path d="M 460 316v 12h 6a 6 6, 0, 0, 0, 0 -12" transform="rotate(-90,466,322)"/><rect x="460" y="328" width="12" height="12" transform="rotate(0,466,334)"/><rect x="460" y="340" width="12" height="12" transform="rotate(0,466,346)"/><path d="M 460 352v 12h 6a 6 6, 0, 0, 0, 0 -12" transform="rotate(90,466,358)"/><path d="M 460 400v 12h 12v -6a 6 6, 0, 0, 0, -6 -6" transform="rotate(0,466,406)"/><rect x="460" y="412" width="12" height="12" transform="rotate(0,466,418)"/><rect x="460" y="424" width="12" height="12" transform="rotate(0,466,430)"/><rect x="460" y="436" width="12" height="12" transform="rotate(0,466,442)"/><rect x="460" y="448" width="12" height="12" transform="rotate(0,466,454)"/><path d="M 460 460v 12h 6a 6 6, 0, 0, 0, 0 -12" transform="rotate(90,466,466)"/></clipPath><clipPath id="clip-path-corners-square-color-0-0"><path clip-rule="evenodd" d="M 28 58v 24a 30 30, 0, 0, 0, 30 30h 24a 30 30, 0, 0, 0, 30 -30v -24a 30 30, 0, 0, 0, -30 -30h -24a 30 30, 0, 0, 0, -30 30M 58 40h 24a 18 18, 0, 0, 1, 18 18v 24a 18 18, 0, 0, 1, -18 18h -24a 18 18, 0, 0, 1, -18 -18v -24a 18 18, 0, 0, 1, 18 -18" transform="rotate(0,70,70)"/></clipPath><clipPath id="clip-path-corners-dot-color-0-0"><circle cx="70" cy="70" r="18" transform="rotate(0,70,70)"/></clipPath><clipPath id="clip-path-corners-square-color-1-0"><path clip-rule="evenodd" d="M 388 58v 24a 30 30, 0, 0, 0, 30 30h 24a 30 30, 0, 0, 0, 30 -30v -24a 30 30, 0, 0, 0, -30 -30h -24a 30 30, 0, 0, 0, -30 30M 418 40h 24a 18 18, 0, 0, 1, 18 18v 24a 18 18, 0, 0, 1, -18 18h -24a 18 18, 0, 0, 1, -18 -18v -24a 18 18, 0, 0, 1, 18 -18" transform="rotate(90,430,70)"/></clipPath><clipPath id="clip-path-corners-dot-color-1-0"><circle cx="430" cy="70" r="18" transform="rotate(90,430,70)"/></clipPath><clipPath id="clip-path-corners-square-color-0-1"><path clip-rule="evenodd" d="M 28 418v 24a 30 30, 0, 0, 0, 30 30h 24a 30 30, 0, 0, 0, 30 -30v -24a 30 30, 0, 0, 0, -30 -30h -24a 30 30, 0, 0, 0, -30 30M 58 400h 24a 18 18, 0, 0, 1, 18 18v 24a 18 18, 0, 0, 1, -18 18h -24a 18 18, 0, 0, 1, -18 -18v -24a 18 18, 0, 0, 1, 18 -18" transform="rotate(-90,70,430)"/></clipPath><clipPath id="clip-path-corners-dot-color-0-1"><circle cx="70" cy="430" r="18" transform="rotate(-90,70,430)"/></clipPath></defs><rect x="0" y="0" height="500" width="500" clip-path="url('#clip-path-background-color')" fill="#fff"/><rect x="0" y="0" height="500" width="500" clip-path="url('#clip-path-dot-color')" fill="#636A88"/><rect x="28" y="28" height="84" width="84" clip-path="url('#clip-path-corners-square-color-0-0')" fill="#636A88"/><rect x="52" y="52" height="36" width="36" clip-path="url('#clip-path-corners-dot-color-0-0')" fill="#636A88"/><rect x="388" y="28" height="84" width="84" clip-path="url('#clip-path-corners-square-color-1-0')" fill="#636A88"/><rect x="412" y="52" height="36" width="36" clip-path="url('#clip-path-corners-dot-color-1-0')" fill="#636A88"/><rect x="28" y="388" height="84" width="84" clip-path="url('#clip-path-corners-square-color-0-1')" fill="#636A88"/><rect x="52" y="412" height="36" width="36" clip-path="url('#clip-path-corners-dot-color-0-1')" fill="#636A88"/></svg>